<?xml version="1.0" standalone="no"?>
<!DOCTYPE svg PUBLIC "-//W3C//DTD SVG 1.1//EN" "http://www.w3.org/Graphics/SVG/1.1/DTD/svg11.dtd" >
<!--
2013-9-30: Created.
-->
<svg>
<metadata>
Created by iconfont
</metadata>
<defs>

<font id="iconfont" horiz-adv-x="1024" >
  <font-face
    font-family="iconfont"
    font-weight="500"
    font-stretch="normal"
    units-per-em="1024"
    ascent="896"
    descent="-128"
  />
    <missing-glyph />
    
    <glyph glyph-name="x" unicode="x" horiz-adv-x="1001"
d="M281 543q-27 -1 -53 -1h-83q-18 0 -36.5 -6t-32.5 -18.5t-23 -32t-9 -45.5v-76h912v41q0 16 -0.5 30t-0.5 18q0 13 -5 29t-17 29.5t-31.5 22.5t-49.5 9h-133v-97h-438v97zM955 310v-52q0 -23 0.5 -52t0.5 -58t-10.5 -47.5t-26 -30t-33 -16t-31.5 -4.5q-14 -1 -29.5 -0.5
t-29.5 0.5h-32l-45 128h-439l-44 -128h-29h-34q-20 0 -45 1q-25 0 -41 9.5t-25.5 23t-13.5 29.5t-4 30v167h911zM163 247q-12 0 -21 -8.5t-9 -21.5t9 -21.5t21 -8.5q13 0 22 8.5t9 21.5t-9 21.5t-22 8.5zM316 123q-8 -26 -14 -48q-5 -19 -10.5 -37t-7.5 -25t-3 -15t1 -14.5
t9.5 -10.5t21.5 -4h37h67h81h80h64h36q23 0 34 12t2 38q-5 13 -9.5 30.5t-9.5 34.5q-5 19 -11 39h-368zM336 498v228q0 11 2.5 23t10 21.5t20.5 15.5t34 6h188q31 0 51.5 -14.5t20.5 -52.5v-227h-327z" />
    

    
    <glyph glyph-name="jinggao" unicode="&#59044;" d="M595.02592 779.264q3.072-5.12 20.992-35.328t45.056-76.288 60.928-104.448 69.632-119.296 71.168-120.832 64.512-110.08 50.176-86.016 29.184-49.152q15.36-25.6 18.944-51.2t-3.072-46.08-23.552-33.28-41.472-11.776q-12.288 0-52.224 0.512t-96.256 0.512l-128 0-144.384 0q-73.728 0-146.432-0.512t-135.168-0.512l-109.568 0-69.632 0q-38.912 0-59.904 13.312t-28.16 34.304-1.536 45.568 19.968 46.08q7.168 11.264 28.16 46.08t50.688 84.48 65.536 109.568 72.704 121.856 71.68 120.32 62.464 105.472 46.08 77.824l21.504 35.84q14.336 22.528 37.376 34.304t47.616 11.776 47.616-10.752 37.376-32.256zM569.42592 578.56q0 12.288-5.632 23.04t-14.848 19.456-20.992 13.824-24.064 5.12q-23.552 0-43.52-18.432t-19.968-41.984l0-268.288q0-23.552 19.968-42.496t43.52-18.944q24.576 0 45.056 17.92t20.48 41.472l0 269.312zM503.88992 189.44q-26.624 0-45.568-18.432t-18.944-45.056 18.944-45.568 45.568-18.944 45.056 18.944 18.432 45.568-18.432 45.056-45.056 18.432z"  horiz-adv-x="1044" />

    
    <glyph glyph-name="tianjiashangjia" unicode="&#58972;" d="M553.977004 170.058992q-26.619563-41.977004-37.881686-89.585069t-6.654891-95.21613 25.595734-92.144642 57.846359-80.370605l3.071488-4.095317 4.095317-3.071488q-55.286785-8.190635-109.037827-13.309782t-91.632728-4.095317q-44.024662 0-105.454424 6.142976t-119.27612 15.35744-101.359106 18.940843-52.727212 16.893184q-11.262123 8.190635-16.893184 50.167639t4.607232 106.478253q6.142976 37.881686 30.714881 56.822529t56.822529 30.714881 67.572738 20.988502 62.965506 26.619563q21.500417 13.309782 32.762539 25.083819t15.869355 24.05999 4.607232 25.595734-1.023829 28.667222q-2.047659 23.548075-16.38127 36.857857t-29.691051 27.643393q-8.190635 6.142976-14.845526 18.940843t-11.774038 26.107649q-5.119147 15.35744-9.214464 31.73871-7.166806 1.023829-14.333611 6.142976-6.142976 5.119147-12.797867 14.333611t-11.774038 26.619563q-6.142976 17.405099-4.607232 31.226795t5.631061 24.05999q4.095317 11.262123 12.285952 21.500417 0 38.905516 4.095317 76.787202 4.095317 32.762539 14.333611 69.620396t30.714881 66.548908q19.452758 27.643393 43.512748 45.560406t48.631895 27.643393 49.655724 13.821696 47.608065 4.095317q29.691051 0 56.822529-6.654891t50.167639-17.917014 41.465089-25.083819 29.691051-28.155307q25.595734-32.762539 37.881686-72.17997t17.405099-74.227628q5.119147-40.953174 4.095317-80.882519 7.166806-4.095317 11.262123-12.285952 4.095317-7.166806 7.166806-18.428928t1.023829-27.643393q-3.071488-21.500417-9.726379-33.786369t-14.845526-19.452758q-9.214464-8.190635-18.428928-11.262123-5.119147-17.405099-10.238294-31.73871-5.119147-12.285952-11.262123-25.083819t-14.333611-18.940843q-9.214464-8.190635-16.893184-14.333611t-13.821696-12.797867-10.238294-14.845526-7.166806-20.476587q-3.071488-17.405099-1.023829-36.857857t15.35744-36.857857zM479.237461-91.017494q0 6.142976-3.071488 23.548075t-7.166806 36.857857-8.190635 37.881686-6.142976 26.619563q13.309782 12.285952 23.548075 31.73871 2.047659 6.142976-2.559573 13.821696t-12.797867 15.869355q-9.214464 8.190635-20.476587 17.405099l-51.191468 0q-11.262123-9.214464-19.452758-17.405099-7.166806-8.190635-11.774038-15.869355t-1.535744-12.797867q4.095317-9.214464 8.70255-16.893184t8.70255-13.821696q-2.047659-6.142976-6.142976-23.036161t-8.70255-36.345942-8.190635-37.881686-3.583403-26.619563q0-5.119147 8.70255-14.845526t19.964672-19.452758 22.524246-16.893184 16.38127-7.166806 15.35744 6.654891 20.988502 15.869355 18.428928 18.428928 7.67872 14.333611zM800.719879 240.703218q46.072321 0 86.513581-17.405099t71.15614-47.608065 48.11998-71.15614 17.405099-88.049325q0-46.072321-17.405099-86.513581t-48.11998-71.15614-71.15614-48.11998-86.513581-17.405099q-47.09615 0-88.049325 17.405099t-71.668055 48.11998-48.11998 71.15614-17.405099 86.513581q0 47.09615 17.405099 88.049325t48.11998 71.15614 71.668055 47.608065 88.049325 17.405099zM926.65089-15.254122q14.333611 0 23.036161 8.70255t8.70255 22.012331-8.70255 22.524246-23.036161 9.214464l-95.21613 0 0 96.23996q0 13.309782-9.214464 22.524246t-21.500417 9.214464q-14.333611 0-23.036161-9.214464t-8.70255-22.524246l0-96.23996-96.23996 0q-13.309782 0-22.524246-9.214464t-9.214464-22.524246 9.214464-22.012331 22.524246-8.70255l96.23996 0 0-96.23996q0-14.333611 8.70255-23.036161t23.036161-8.70255q12.285952 0 21.500417 8.70255t9.214464 23.036161l0 96.23996 95.21613 0z"  horiz-adv-x="1024" />

    
    <glyph glyph-name="zuosanjiao" unicode="&#58939;" d="M514.4393-154.1921M951.2481-120.2051 491.1232 316.287 951.1801 752.849Z"  horiz-adv-x="1000" />

    
    <glyph glyph-name="wenjuan" unicode="&#58990;" d="M736.9733 754.7047H150.182483940214v-877.6849296177191h726.5019447631307V617.5666897843263L736.9733 754.7047zM289.8936 41.5862l-55.8845 54.8548v54.854808439877765l55.8845-54.8548 111.7699 54.8548h55.88645621384799L289.8936 41.5862zM289.8936 219.8633l-55.8845 54.8578v54.854808439877765l55.8845-54.8548 111.7699 54.8548h55.88645621384799L289.8936 219.8633zM289.8936 398.1455l-55.8845 54.8558v54.854808439877765l55.8845-54.8548 111.7699 54.8548h55.88645621384799L289.8936 398.1455zM764.9165 69.0136H513.4344556861836v27.427404219938882h251.4820574114863V69.0136087732518zM764.9165 233.58H513.4344556861836v27.427404219938882h251.4820574114863V233.58003273780378zM764.9165 425.5739H513.4344556861836v27.427404219938882h251.4820574114863V425.57386092229467zM820.8 590.1393h-139.71114371259878V727.2803039539192h27.94122937811552v-109.71261484713365h111.76991433448326V590.1392855643874z"  horiz-adv-x="1000" />

    
    <glyph glyph-name="dibiao" unicode="&#59083;" d="M514.088-120.7777c0 0-331.0235 365.8959-331.0235 547.234S331.2693 754.7966 514.088 754.7966s331.0235-147.0023 331.0235-328.3404S514.088-120.7777 514.088-120.7777zM514.09 583.9655c-72.4519 0-131.1896-58.2555-131.1896-130.1208 0-71.8673 58.7386-130.1258 131.1896-130.1258 72.4539 0 131.1876 58.2575 131.1876 130.1258C645.2786 525.71 586.544 583.9655 514.09 583.9655z"  horiz-adv-x="1000" />

    
    <glyph glyph-name="guanbi" unicode="&#59077;" d="M553.7123 316.3219 943.428 706.0187c10.6492 10.6498 10.6492 27.9041 0 38.5559-10.6522 10.6498-27.9062 10.6498-38.5574 0L515.1558 354.8768 125.4421 744.5746c-10.6502 10.6498-27.9052 10.6498-38.5564 0-10.6512-10.6508-10.6512-27.9051 0-38.5559l389.7148-389.6968L86.8857-73.3769c-10.6512-10.6508-10.6512-27.9041 0-38.5549 5.3246-5.3244 12.3561-7.9856 19.2787-7.9856 7.0285 0 13.9511 2.6612 19.2777 7.9856l389.7128 389.6998L904.8706-111.9317c5.3266-5.3244 12.3561-7.9856 19.2777-7.9856 7.0295 0 13.9521 2.6612 19.2797 7.9856 10.6492 10.6508 10.6492 27.9041 0 38.5549L553.7123 316.3219z"  horiz-adv-x="1000" />

    
    <glyph glyph-name="jiudian" unicode="&#59080;" d="M78.7249-120.0992h436.4339915473843V752.7440395411911H78.72485226910459V-120.0991727608681zM348.0853 644.8112h109.10849788684608v-109.10402746937575H348.08526968321183V644.8112179942zM348.0853 425.431h109.10849788684608V316.32792966368805H348.08526968321183V425.43095781060447zM348.0853 208.3961h109.10849788684608v-109.11502001642884H348.08526968321183V208.39610743915625zM133.2791 644.8112h109.10849788684608v-109.10402746937575H133.27910121252762V644.8112179942zM133.2791 425.431h109.10849788684608V316.32792966368805H133.27910121252762V425.43095781060447zM133.2791 208.3961h109.10849788684608v-109.11502001642884H133.27910121252762V208.39610743915625zM569.7121 476.3344l381.8767 0 0-49.9951-381.8767 0 0 49.9951ZM569.7121-120.0992 678.8196-120.0992 678.8196 70.8074 842.4823 70.8074 842.4823-120.0992 951.5888-120.0992 951.5888 366.3 569.7121 366.3Z"  horiz-adv-x="1000" />

    
    <glyph glyph-name="biaoqing" unicode="&#59085;" d="M969.6235 348.9012C942.7696 601.3695 716.1104 784.143 463.3704 757.1429 210.6305 730.1427 27.5017 503.5879 54.3765 251.0988c26.8539-252.4682 253.5131-435.2418 506.274-408.2416C813.3695-130.1427 996.4983 96.433 969.6235 348.9012zM647.8158 488.1443c40.3958 0 73.1429-32.7471 73.1429-73.1429 0-40.3958-32.7471-73.1429-73.1429-73.1429s-73.1429 32.7471-73.1429 73.1429C574.673 455.3972 607.4201 488.1443 647.8158 488.1443zM376.1424 488.1443c40.3958 0 73.1429-32.7471 73.1429-73.1429 0-40.3958-32.7471-73.1429-73.1429-73.1429s-73.1429 32.7471-73.1429 73.1429C302.9995 455.3972 335.7466 488.1443 376.1424 488.1443zM737.4681 175.3019c-22.319-99.1608-123.1935-167.7897-225.489-167.7897-105.9944 0-206.3673 70.4888-226.4085 171.7812 0 27.3763 20.898 37.1984 33.7711 37.1984 84.6785 0 290.6488 0 380.0921 0C708.7961 216.4709 744.5943 213.2317 737.4681 175.3019z"  horiz-adv-x="1024" />

    
    <glyph glyph-name="shuaxin" unicode="&#58997;" d="M702.2725 64.4073c-52.8855-37.5183-114.7638-56.3272-178.0214-55.4609-8.364 0.0881-16.6707 0.5274-24.875 1.2585-3.3536 0.3205-6.7092 0.8765-10.0782 1.3015-6.4604 0.8663-12.9352 1.7428-19.2215 2.9747-3.8973 0.7475-7.7046 1.7582-11.5128 2.6522-6.1676 1.4664-12.3075 2.945-18.3265 4.7606-2.901 0.9083-5.7272 1.9487-8.5985 2.9297-6.9437 2.3583-13.8588 4.7892-20.5967 7.6462-1.5227 0.6175-2.988 1.3455-4.5117 2.0367-7.852 3.5021-15.6457 7.1772-23.1465 11.308-0.3656 0.1915-0.6738 0.3523-1.0394 0.5407-25.4464 14.1527-48.7393 31.8188-69.1599 52.4605-0.3082 0.3205-0.6451 0.7035-0.981 1.0691-6.3437 6.4471-12.3935 13.185-18.1514 20.2158-1.2012 1.495-2.3736 3.1058-3.5891 4.6438-41.5601 52.6479-66.6255 119.2745-66.6255 191.7614h70.498304c1.8207 0 3.583 0.9759 4.5066 2.6911 0.9247 1.7152 0.77 3.7233-0.2314 5.2449L180.1073 504.4129c-0.9155 1.3896-2.4893 2.304-4.2762 2.304s-3.3618-0.9155-4.2762-2.304L53.0493 324.446c-1.0015-1.5217-1.1551-3.5297-0.2314-5.2449 0.9247-1.7152 2.686-2.6911 4.5076-2.6911h70.51264c0-85.2163 26.2369-164.2045 70.8147-229.5122 0.5427-0.9103 0.938-1.877 1.538-2.7863 4.6141-6.6785 9.7423-12.8461 14.6934-19.1601 1.8463-2.388 3.5748-4.8476 5.4938-7.1905 7.296-8.9661 15.0446-17.3896 23.0144-25.6225 0.7619-0.8202 1.4653-1.6251 2.2129-2.3583 26.75-27.1155 57.001-49.9702 89.9031-68.2373 0.8499-0.514 1.6998-1.0424 2.6368-1.5247 9.4781-5.1548 19.2195-9.814 29.0939-14.2244 2.4617-1.068 4.864-2.2702 7.3687-3.326 8.4388-3.5451 17.11-6.6499 25.856-9.6102 4.1308-1.4213 8.233-2.8713 12.4221-4.1738 7.6329-2.2856 15.4409-4.2045 23.3216-6.0938 5.2152-1.2308 10.3997-2.5641 15.7194-3.5891 2.2118-0.4547 4.2916-1.1438 6.4614-1.4797 7.4117-1.3332 14.8828-2.0797 22.3099-2.988 2.6808-0.3236 5.3176-0.7782 7.9995-1.0691 13.3458-1.3343 26.6465-2.2118 39.935-2.2118 81.3189 0 160.6605 25.1812 228.7196 73.4515 21.6832 15.4245 26.9722 45.6899 11.7801 67.6792C753.8964 74.5152 723.9537 79.8328 702.2725 64.4073M927.9171 316.51c-0.044 84.951-26.1202 163.7806-70.4778 228.9551-0.6451 1.1131-1.0854 2.2415-1.8156 3.2819-5.5081 7.9688-11.5313 15.3969-17.5206 22.8383-0.6881 0.9083-1.3322 1.8606-2.0654 2.7546-40.5955 49.8668-91.5589 88.3804-149.3217 113.5616-1.5985 0.7035-3.1642 1.4797-4.7749 2.1832-9.216 3.838-18.6655 7.2366-28.1559 10.4448-3.4284 1.1428-6.783 2.4023-10.284 3.4427-8.277 2.5344-16.6717 4.5998-25.1402 6.5782-4.6725 1.0988-9.345 2.2999-14.078 3.2369-2.3429 0.4547-4.5548 1.1571-6.869 1.5821-6.314 1.0988-12.6577 1.5821-18.986 2.4166-4.395 0.5571-8.6733 1.2452-13.097 1.6998-10.6353 0.9964-21.1845 1.4203-31.7307 1.6108-1.9343 0-3.7939 0.3082-5.7129 0.3082-0.3512 0-0.6728-0.1034-1.025-0.1321C445.6448 721.2142 366.4794 696.3832 298.5062 648.1723c-21.7395-15.3815-27.0285-45.6765-11.8221-67.6803 15.1767-22.0037 45.1635-27.3357 66.859-11.9091 52.5036 37.2234 113.7531 56.063 176.5704 55.4916 9.0388-0.0584 17.9313-0.512 26.7213-1.3476 2.7095-0.3082 5.3914-0.7178 8.0855-1.0547 7.2233-0.894 14.3862-1.9333 21.4456-3.3403 3.1212-0.6154 6.1983-1.4203 9.2426-2.1248 6.9304-1.5811 13.8455-3.2809 20.6131-5.3473 2.1381-0.6881 4.2465-1.4643 6.3857-2.1678 7.721-2.5631 15.3231-5.3176 22.7963-8.4675 0.7598-0.3215 1.538-0.7178 2.2702-1.025 44.7386-19.4836 83.9854-49.4715 114.603-87.0031 0.1915-0.2191 0.3799-0.513 0.5571-0.7322 43.0981-53.119 69.0432-121.0184 69.0719-194.9542h-70.528c-1.8207 0-3.583-0.9759-4.5066-2.6911s-0.77-3.7233 0.2324-5.2449l118.5321-179.9537c0.9155-1.3885 2.4893-2.304 4.2772-2.304 1.7869 0.001 3.3608 0.9165 4.2752 2.305l118.4768 179.9537c1.0025 1.5217 1.1561 3.5287 0.2314 5.2449-0.9236 1.7152-2.686 2.6911-4.5066 2.6911H927.917056L927.9171 316.51z"  horiz-adv-x="1024" />

    
    <glyph glyph-name="fapiao" unicode="&#59016;" d="M822.505472 682.685184 54.752256 682.685184l0-701.917184 683.016192 0L737.768448 265.374464 589.41952 265.374464l245.013504 200.43776 114.98496-95.017984L949.417984 556.738304 822.505472 682.685184zM120.588288 592.063232l225.780736 0 0-32.254976L120.588288 559.808256 120.588288 592.063232zM120.588288 299.652864l426.986496 0 0-32.254976L120.588288 267.397888 120.588288 299.652864zM510.713856 139.91808 120.588288 139.91808l0 32.254976 390.124544 0L510.712832 139.91808zM628.979712 202.889984 120.588288 202.889984l0 32.254976 508.391424 0L628.979712 202.889984zM687.852544 364.746496 120.588288 364.746496l0 32.254976 567.264256 0L687.852544 364.746496zM688.88064 429.255424 120.588288 429.255424l0 32.254976 568.292352 0L688.88064 429.255424zM759.532544 492.228352 120.588288 492.228352l0 32.254976 638.944256 0L759.532544 492.228352zM819.433472 558.27328l0 89.083904 92.15488-89.083904L819.433472 558.27328zM834.572288 424.853248 672.891904 296.868608 768.52736 296.868608 768.52736-83.08864 896.976896-83.08864 896.976896 296.868608 992.907264 296.868608Z"  horiz-adv-x="1024" />

    
    <glyph glyph-name="beizhu" unicode="&#59015;" d="M31.676416-53.865728M229.98016-148.129024l138.052608 19.572736-53.57056 371.390464c26.264576 29.348864 75.70432 74.559488 132.891648 76.74368 117.942272 4.507648 232.311808-3.084288 341.507072 85.506048 13.913088 13.908992 28.443648 31.867904 43.779072 54.601728 26.387456 39.077888 59.76064 100.954112 89.121792 195.733504-70.567936-20.604928-126.736384-33.364992-167.932928-40.173568-24.220672-4.013056-44.81536-7.672832-63.347712-9.27744-94.272512-8.17664-112.451584 20.926464-177.195008 73.660416-26.94656 21.956608-61.328384 36.470784-100.959232 48.413696-68.021248 20.507648-168.953856 32.451584-308.026368 2.066432L229.98016-148.129024zM993.872896-53.865728"  horiz-adv-x="1024" />

    
    <glyph glyph-name="tianjia" unicode="&#58891;" d="M511.256 812C228.9 812 0 583.1 0 300.744 0 188.2 36.805 84.491 98.429 0.043l38.415 39.993c-51.592 73.945-82.067 163.708-82.067 260.709 0 252.105 204.374 456.479 456.479 456.479 252.089 0 456.466-204.374 456.466-456.479 0-252.101-204.376-456.466-456.466-456.466-96.102 0-185.157 29.847-258.709 80.565l-34.387-42.609c83.032-58.26 183.962-92.734 293.096-92.734 282.351 0 511.245 228.894 511.245 511.244C1022.5 583.1 793.606 812 511.256 812zM492.979 556.38 492.979 319.014 255.613 319.014 255.613 264.238 492.979 264.238 492.979 26.872 547.756 26.872 547.756 264.238 785.121 264.238 785.121 319.014 547.756 319.014 547.756 556.38Z"  horiz-adv-x="1024" />

    
    <glyph glyph-name="fenxiang" unicode="&#58991;" d="M806.102016 440.673024c84.93056 0 154.021888 69.102592 154.021888 154.00448 0 84.912128-69.091328 154.015744-154.021888 154.015744-84.929536 0-154.021888-69.103616-154.021888-154.015744 0-7.515136 0.722944-14.841856 1.788928-22.08768L330.047488 448.06016c-28.127232 29.853696-67.841024 48.60928-111.97952 48.60928-84.929536 0-154.021888-69.091328-154.021888-154.003456 0-84.912128 69.092352-154.0096 154.021888-154.0096 33.088512 0 63.71328 10.602496 88.839168 28.438528l219.40224-146.249728c-9.053184-19.56864-14.22336-41.257984-14.22336-64.202752 0-84.912128 69.066752-154.028032 154.0096-154.028032 84.892672 0 154.008576 69.115904 154.008576 154.028032 0 84.913152-69.115904 154.00448-154.008576 154.00448-41.847808 0-79.77472-16.807936-107.557888-43.99104L346.560512 257.98016c16.072704 24.334336 25.504768 53.398528 25.504768 84.685824 0 20.231168-4.018176 39.513088-11.147264 57.238528L671.828992 519.471872C698.215424 472.517376 748.490752 440.673024 806.102016 440.673024"  horiz-adv-x="1024" />

    
    <glyph glyph-name="youjian" unicode="&#59042;" d="M944.934912 620.765952c-5.781504-0.608256-11.573248-1.094656-17.34144-1.094656-276.85376-0.169984-553.695232-0.169984-830.53568 0-5.768192 0-11.548672 0.487424-17.34144 1.094656-9.017344-3.456-15.430656-12.181504-15.430656-22.427648l0-2.495488c12.425216-8.421376 26.079232-15.455232 37.067776-25.434112C214.029312 467.894016 326.340608 364.990208 438.639616 262.061824c54.214656-49.69984 92.913664-49.750016 147.309568 0.07168 111.545344 102.102016 223.015936 204.288 334.913536 306.01216 11.803648 10.732544 26.273792 18.521088 39.489536 27.696128l0 2.495488C960.35328 608.584448 953.951232 617.309952 944.934912 620.765952M695.681024 259.309312c-15.783936 13.874176-27.406336 13.75232-41.814016-1.678336-14.286848-15.286272-30.77632-28.550144-46.524416-42.447872-61.479936-54.127616-129.27488-53.885952-190.803968 0.705536-20.566016 18.241536-40.937472 36.67968-63.949824 57.341952-63.280128-52.328448-125.04064-103.780352-187.262976-154.69568-33.283072-27.236352-67.33312-53.545984-101.029888-80.258048l0-35.69152c0-13.290496 10.758144-24.045568 24.046592-24.045568l847.962112 0c13.289472 0 24.05888 10.756096 24.05888 24.045568l0 42.323968c-55.163904 43.809792-110.522368 87.35232-165.394432 131.52768C761.383936 203.465472 728.039424 230.857472 695.681024 259.309312M64.285696 536.092416l0-438.074368C147.049472 167.01824 229.788672 236.017408 316.082176 307.988224 229.351424 386.554624 146.818048 461.321984 64.285696 536.092416M960.365568 104.66176 960.365568 536.092416c-82.35008-74.624-164.687872-149.245952-249.78944-226.37568C796.68736 239.023872 878.52544 171.838208 960.365568 104.66176"  horiz-adv-x="1024" />

    
    <glyph glyph-name="dianhua" unicode="&#59019;" d="M512.400384 552.189696c-5.876736 0-11.599872-0.543744-17.393664-0.884736l0-105.220096c5.82656 0.525312 11.430912 1.748992 17.393664 1.748992 105.663488 0 191.318016-85.653504 191.318016-191.318016 0-18.207744-3.362816-35.482624-8.119296-52.176896l107.598848 0c3.024896 16.96768 4.876288 34.342912 4.876288 52.176896C808.07424 419.808 675.692544 552.189696 512.400384 552.189696zM512.400384 760.899328c-5.876736 0-11.567104-0.678912-17.393664-0.883712l0-104.354816c5.810176 0.253952 11.516928 0.882688 17.393664 0.882688 220.921856 0 400.028672-179.088384 400.028672-400.028672 0-17.732608-1.545216-35.057664-3.787776-52.176896l105.443328 0c1.765376 17.154048 2.701312 34.564096 2.701312 52.176896C1016.78592 535.0848 790.970368 760.899328 512.400384 760.899328zM695.786496 50.7584c-57.920512 22.14912-112.780288 50.650112-176.372736-8.71424-39.250944-36.635648-67.633152-32.627712-93.29664-18.987008C400.468992 36.695808 242.4576 198.017792 220.886016 250.790656c-21.57056 52.772864-9.918464 59.906048 0 75.905024 9.904128 16.018432 78.708736 53.384192 37.315584 170.800128-41.408512 117.417984-73.918464 205.841408-242.561024 0-17.494016-21.349376 0-113.866752 0-113.866752s118.912-388.701184 522.423296-550.345728c62.640128-25.088 204.107776 14.641152 261.21216 113.866752C827.266048-4.221184 786.67264 16.007936 695.786496 50.7584z"  horiz-adv-x="1024" />

    
    <glyph glyph-name="zhandianguanli" unicode="&#58933;" d="M337.664 186.72c0 0-34.432 35.776 0 63.552 0 0 22.528 34.432 63.616 0l47.68-47.68c0 0 15.872-29.12 30.464 0l145.664 145.728c0 0 25.216 29.184 62.272 0 0 0 34.496-34.432 0-66.24l-190.72-189.44c0 0-31.808-35.84-62.272 0L337.664 186.72zM972.224 552.352l0-649.088L50.24-96.736 50.24 552.352 3.904 552.352l0-667.584c0 0-5.312-30.528 31.808-30.528l953.856 0c0 0 31.744-6.656 31.744 31.744L1021.312 552.352 972.224 552.352zM1021.248 552.352 1021.248 711.328c0 0 7.936 33.152-33.152 33.152L385.344 744.48 385.344 698.08c0 0 47.68 0 47.68-49.664 0 0-7.936-45.696-47.68-45.696 0 0-43.712-6.656-49.024 45.696L291.328 648.416c0 0 3.968-49.664-50.368-47.04 0 0-45.056-3.968-46.4 47.04L146.944 648.416c0 0 1.344-47.04-47.68-47.04 0 0-49.024-3.968-49.024 47.04L3.904 648.416l0-96L1021.248 552.416zM385.344 698.08c0 0-46.336 1.344-49.024-49.664L291.328 648.416c0 0 6.656 48.384-49.024 49.664 0 0-45.056 3.968-47.744-49.664L146.944 648.416c0 0 6.656 51.136-47.68 49.728 0 0-49.024 2.624-49.024-49.728L3.904 648.416 3.904 708.64c0 0 1.344 35.776 35.776 35.776l345.728 0L385.408 698.08z"  horiz-adv-x="1024" />

    
    <glyph glyph-name="didian" unicode="&#58928;" d="M512.29184-141.111552c-6.393856 0-12.422144 2.987008-16.294912 8.075264L245.266432 196.307712c-0.029696 0.038912-0.058368 0.0768-0.08704 0.114688-0.56832 0.75776-1.145856 1.511424-1.724416 2.265088-0.975872 1.273856-1.982464 2.586624-3.007488 3.989504l-1.129472 1.386496c-0.768 0.943104-1.441792 1.94048-2.020352 2.97984-40.948736 57.40544-62.57664 125.026304-62.57664 195.734528 0 90.172416 35.104768 174.952448 98.847744 238.724096 63.757312 63.785984 148.537344 98.914304 238.721024 98.914304 90.174464 0 174.959616-35.127296 238.739456-98.911232 63.775744-63.77984 98.898944-148.56192 98.898944-238.726144 0-70.70208-21.653504-138.328064-62.651392-195.744768-0.521216-0.934912-1.119232-1.836032-1.794048-2.695168l-1.323008-1.682432c-1.49504-2.003968-3.113984-4.15232-4.856832-6.361088L528.586752-133.036288C524.713984-138.124544 518.685696-141.111552 512.29184-141.111552zM277.901312 221.05984l234.389504-307.88096 234.533888 308.074496c0.075776 0.101376 0.152576 0.19968 0.232448 0.299008 1.44896 1.83296 2.819072 3.646464 4.4288 5.805056 0.098304 0.131072 0.196608 0.26112 0.297984 0.390144 0.267264 0.433152 0.550912 0.857088 0.852992 1.272832 36.852736 50.819072 56.332288 110.903296 56.332288 173.759488 0 79.224832-30.86336 153.720832-86.902784 209.764352-56.042496 56.046592-130.542592 86.913024-209.774592 86.913024-79.240192 0-153.731072-30.865408-209.752064-86.910976-56.010752-56.036352-86.857728-130.533376-86.857728-209.767424 0-62.869504 19.457024-122.9568 56.2688-173.765632 0.227328-0.313344 0.443392-0.630784 0.651264-0.954368 0.231424-0.285696 0.454656-0.577536 0.67072-0.876544 0.820224-1.133568 1.731584-2.323456 2.696192-3.581952C276.617216 222.753536 277.26336 221.908736 277.901312 221.05984zM512.29184 271.731456c-72.779776 0-131.990528 59.209728-131.990528 131.989504 0 72.779776 59.210752 131.989504 131.990528 131.989504 72.778752 0 131.989504-59.210752 131.989504-131.989504C644.281344 330.942208 585.070592 271.731456 512.29184 271.731456zM512.29184 494.751488c-50.194432 0-91.030528-40.836096-91.030528-91.029504 0-50.194432 40.836096-91.030528 91.030528-91.030528 50.194432 0 91.029504 40.836096 91.029504 91.030528C603.321344 453.915392 562.485248 494.751488 512.29184 494.751488z"  horiz-adv-x="1024" />

    
    <glyph glyph-name="ipad" unicode="&#58988;" d="M764.032-148 259.968-148c-46.4 0-83.968 37.632-83.968 83.968L176 664.032C176 710.432 213.632 748 259.968 748l504 0c46.4 0 83.968-37.568 83.968-83.968l0-728C848-110.368 810.368-148 764.032-148zM512-119.968c15.424 0 28.032 12.48 28.032 28.032S527.424-64.032 512-64.032s-28.032-12.48-28.032-28.032S496.576-119.968 512-119.968zM526.016 692 497.984 692c-7.744 0-14.016-6.272-14.016-14.016S490.24 664.032 497.984 664.032l28.032 0c7.744 0 14.016 6.272 14.016 14.016S533.76 692 526.016 692zM792 636l-560 0 0-672 560 0L792 636z"  horiz-adv-x="1024" />

    
    <glyph glyph-name="caidan" unicode="&#58970;" d="M996.148682 625.818182c0-24.522182-16.638545-46.545455-37.158545-46.545455L194.776318 579.272727c-20.520727 0-37.159273 22.023273-37.159273 46.545455l0 0c0 24.522182 16.637818 46.545455 37.159273 46.545455l764.213818 0C979.510136 672.363636 996.148682 650.340364 996.148682 625.818182L996.148682 625.818182zM996.148682 300c0-24.522182-16.638545-46.545455-37.158545-46.545455L194.776318 253.454545c-20.520727 0-37.159273 22.023273-37.159273 46.545455l0 0c0 24.522182 16.637818 46.545455 37.159273 46.545455l764.213818 0C979.510136 346.545455 996.148682 324.522182 996.148682 300L996.148682 300zM996.148682-25.818182c0-24.522182-16.638545-46.545455-37.158545-46.545455L194.776318-72.363636c-20.520727 0-37.159273 22.023273-37.159273 46.545455l0 0c0 24.522182 16.637818 46.545455 37.159273 46.545455l764.213818 0C979.510136 20.727273 996.148682-1.296 996.148682-25.818182L996.148682-25.818182z"  horiz-adv-x="1152" />

    
    <glyph glyph-name="wenzinf" unicode="&#59027;" d="M938.685513 501.171766 908.163132 470.652681 779.535436 598.650891 618.678414 598.650891l0-566.175877 128.315575-128.309294-0.313145-30.835286L277.338599-126.669566l0 42.666752 395.529168 0-96.85683 96.851838L576.010937 641.314573l222.838148 0.312108 97.167928-97.163947L896.017013 683.981325 128.00243 683.981325l0-139.517567 97.168951 97.163947 222.837125-0.312108 0-639.987976L405.34103 1.32762 405.34103 598.650891 244.482984 598.650891 116.480554 470.652681 85.022832 501.483874l0.312121 225.164203 853.35056 0 0.312121-225.164203L938.685513 501.171766z"  horiz-adv-x="1024" />

    
    <glyph glyph-name="top" unicode="&#58919;" d="M825.568 256.672l-287.392 289.28C531.808 552.352 523.488 555.424 515.2 555.36 514.08 555.456 513.12 556 512 556c-4.672 0-9.024-1.088-13.024-2.88-4.032-1.536-7.872-3.872-11.136-7.136l-259.328-258.88c-12.512-12.48-12.544-32.736-0.032-45.248 6.24-6.272 14.432-9.408 22.656-9.408 8.192 0 16.352 3.136 22.624 9.344L480 447.712 480-116c0-17.696 14.336-32 32-32s32 14.304 32 32L544 449.28l236.192-237.728c6.24-6.272 14.496-9.44 22.688-9.44s16.32 3.104 22.56 9.312C838.016 223.872 838.048 244.16 825.568 256.672zM864 620 160 620C142.336 620 128 634.336 128 652s14.336 32 32 32l704 0c17.696 0 32-14.336 32-32S881.696 620 864 620z"  horiz-adv-x="1024" />

    
    <glyph glyph-name="jia" unicode="&#58906;" d="M960.225968 228.8618c0-3.304256-1.268952-6.608511-3.786388-9.125845-2.516413-2.51631-5.820804-3.786233-9.147709-3.786233L594.291005 215.949722l0-351.234503c0-3.282766-1.268952-6.608511-3.786388-9.147334-2.516413-2.494821-5.820804-3.764744-9.126219-3.764744L439.118681-148.196859c-3.304391 0-6.608782 1.269923-9.126219 3.764744-2.516413 2.538823-3.786388 5.821589-3.786388 9.147334L426.206075 215.949722 76.685615 215.949722c-3.304391 0-6.608782 1.269923-9.126219 3.786233-2.516413 2.517333-3.786388 5.843078-3.786388 9.147334L63.773009 371.115688c0 3.304256 1.269975 6.608511 3.786388 9.125845 2.516413 2.51631 5.821827 3.786233 9.126219 3.786233l349.520459 0L426.206075 735.284781c0 3.304256 1.269975 6.608511 3.786388 9.125845s5.821827 3.786233 9.126219 3.786233l142.259717-0.021489c3.304391 0 6.609806-1.24741 9.126219-3.786233 2.538927-2.51631 3.786388-5.821589 3.786388-9.125845l0-351.234503 353.022357 0c3.304391 0 6.609806-1.269923 9.126219-3.786233 2.517436-2.517333 3.786388-5.843078 3.786388-9.148357L960.225968 228.8618z"  horiz-adv-x="1024" />

    
    <glyph glyph-name="qianjin" unicode="&#58961;" d="M736.102 286.944l0.172 0.172-41.082 41.085-328.721 331.523-82.683-81.975 287.994-290.448-287.995-287.941 82.326-82.334 370.159 369.745z"  horiz-adv-x="1024" />

    
    <glyph glyph-name="shanchu" unicode="&#58894;" d="M513.054 748.355c248.602-0.285 448.484-200.718 447.958-449.188-0.532-249.265-201.231-447.766-452.116-447.159-246.599 0.599-446.46 201.877-445.908 449.067C63.541 549.106 264.316 748.641 513.054 748.355zM511.209-37.363c187.756-0.57 337.401 147.491 338.498 334.922 1.111 189.62-148.774 340.753-337.83 340.646C325 638.097 175.007 488.545 174.283 301.594 173.554 113.132 322.567-36.784 511.209-37.363zM734.908 244.198c-58.049 0-389.86 0.266-445.688 0.266 0 37.446 0 72.919 0 110.545 54.575 0 387.941-0.256 445.688-0.256"  horiz-adv-x="1024" />

    
    <glyph glyph-name="renyuanguanli" unicode="&#58993;" d="M440.582 746.382c83.087-0.057 168.017-70.679 195.704-162.731 24.512-81.484-5.331-163.072-81.662-223.267-67.653-53.355-140.948-57.824-216.753-13.223-141.504 83.258-137.365 280.766 9.094 369.708C374.494 733.585 404.245 742.659 440.582 746.382 441.479 744.09 439.681 748.675 440.582 746.382zM356.365-64.579c-76.171 8.698-152.342 17.406-228.518 26.115-0.846 0.094-1.693 0.229-2.53 0.406-64.888 13.874-67.838 18.684-47.961 79.964 13.418 41.367 26.129 82.997 40.851 123.901 23.425 65.091 73.32 98.839 139.796 102.224 77.498 3.948 155.343 1.583 233.027 0.925 26.776-0.229 31.416-9.503 19.972-33.962-2.886-6.171-6.108-12.233-9.701-18.019-45.391-73.063-60.106-150.796-39.113-235.267 8.614-34.644 1.854-41.188-33.57-41.889-17.923-0.351-35.861-0.08-53.793-0.091-5.972-0.005-11.946 0-17.919 0C356.726-61.709 356.545-63.146 356.365-64.579zM499.362 125.161c13.253 3.405 26.285 7.25 39.539 10.044 20.704 4.359 23.545 14.631 10.862 30.438-8.001 9.98-16.429 19.621-26.445 31.528 10.644 14.393 21.677 29.252 32.634 44.164 10.566 14.365 21.06 28.786 32.885 44.973 13.924-10.422 26.506-20.181 39.442-29.447 20.173-14.456 33.798-10.95 43.854 12.251 5.362 12.368 8.509 25.699 13.379 40.831 25.765 0 52.16 1.15 78.315-0.879 5.907-0.456 13.318-11.121 16.024-18.546 19.871-54.576 22.087-55.387 68.674-19.063 5.958 4.647 12.257 8.859 20.008 14.426 21.962-29.485 43.166-57.962 67.577-90.741-9.424-7.451-18.829-13.539-26.585-21.278-21.857-21.803-19.161-31.461 10.142-39.15 12.311-3.229 24.681-6.227 37.639-9.481 0-29.877 0-58.684 0-88.384-14.479-4.13-28.511-7.304-41.934-12.145-23.55-8.49-26.29-22.586-8.072-39.134 8.118-7.375 16.841-14.084 25.002-20.853-29.621-28.5-58.432-56.229-89.579-86.196-6.157 5.506-15.893 14.524-25.974 23.152-18.61 15.913-34.894 9.78-39.233-14.65-1.043-5.887-1.804-11.825-2.666-17.743-0.736-5.04-1.438-10.086-2.419-16.99-28.796 0-57.308 0-88.037 0-2.74 12.682-5.046 25.936-8.522 38.866-5.041 18.74-16.255 25.67-34.363 15.247-16.265-9.358-32.242-19.225-50.902-30.398-22.343 28.866-45.009 58.148-68.483 88.478 9.363 8.071 17.962 14.966 25.983 22.482 18.865 17.688 16.27 29.52-8.752 38.333-12.728 4.484-25.937 7.619-39.991 11.668C499.362 66.22 499.362 94.971 499.362 125.161zM842.321 82.509c-0.311 64.091-51.979 115.439-115.634 114.923-63.916-0.516-114.537-52.221-114.086-116.516 0.45-64.041 51.859-114.751 116.04-114.47C792.847-33.264 842.632 17.566 842.321 82.509z"  horiz-adv-x="1024" />

    
    <glyph glyph-name="weilvyou" unicode="&#59081;" d="M280.966368 187.068951 280.966368 692.307967l574.1597-264.10305L280.966368 187.068951zM212.067409-145.929212c-19.030182 0-34.448968 15.429411-34.448968 34.447557L177.618441 715.273005c0 19.029402 15.418786 34.44858 34.448968 34.44858 19.025065 0 34.449991-15.419178 34.449991-34.44858l0-826.75466C246.5174-130.498778 231.092474-145.929212 212.067409-145.929212z"  horiz-adv-x="1024" />

    
    <glyph glyph-name="weiqiandao" unicode="&#58994;" d="M306.101 418.358l87.493 87.491 98.431-98.426 317.165 328.087 98.431-98.427-404.658-415.578-196.861 196.852zM393.594 560.53l-142.176-142.172 251.544-251.535 339.039 339.024 120.303-120.3-448.406-448.385-448.405 448.386 448.405 448.387 174.986-174.98-196.86-196.852-98.431 98.427z"  horiz-adv-x="1024" />

    
    <glyph glyph-name="weitoupiao" unicode="&#58980;" d="M502.890667 240.349435 502.890667 240.349435l-32.326544-32.514531-32.325521 32.514531 0 0-88.892112 89.422635 32.326544 32.521694 88.891088-89.427752 210.110767 211.364919 32.325521-32.521694L502.890667 240.349435zM321.996488 749.402313l297.138339 0 0-253.461689L321.996488 495.940624 321.996488 749.402313zM367.712519 542.462171l205.7073 0L573.41982 703.413909 367.712519 703.413909 367.712519 542.462171zM573.418796 404.502076 573.418796 404.502076 367.712519 404.502076l0-22.99676-45.715008-45.987381L321.997512 450.485363l297.138339 0L573.418796 404.502076zM367.712519 197.55784l205.7073 0 0 80.474846 45.716031 45.995567 0-172.991959L321.996488 151.036293 321.996488 314.439874l45.715008-38.315654L367.711496 197.55784zM619.134827-147.876564 321.996488-147.876564 321.996488 105.586149l297.138339 0L619.134827-147.876564zM573.418796 59.596721 367.712519 59.596721 367.712519-101.355017l205.7073 0L573.41982 59.596721z"  horiz-adv-x="1024" />

    
    <glyph glyph-name="shangchuan" unicode="&#58888;" d="M741.293764 415.120694M297.550879 406.693784c2.018036-0.625239 11.500352-1.136891 21.073745-1.136891l97.339559 0c9.57237 0 17.405053-7.831347 17.405053-17.404357l0-160.577911c0-9.571987 0.631404-20.689163 1.403006-24.704609 0 0 0 0 2.779405-2.755758 2.794755-2.79976 2.794755-2.79976 2.794755-2.79976 4.015606-0.768501 15.133227-1.397833 24.70662-1.397833l93.893956 0c9.57237 0 20.691014 0.629332 24.707643 1.397833 0 0 0 0 2.795779 2.79976 2.776335 2.755758 2.776335 2.755758 2.776335 2.755758 0.771602 4.015445 1.403006 15.131599 1.403006 24.704609L590.629741 388.152536c0 9.571987 7.83166 17.404357 17.405053 17.404357l97.341605 0c9.57237 0 19.057755 0.511652 21.078862 1.136891 0 0 0 0 0.746019 1.862414 0.733738 1.86446 0.733738 1.86446 0.733738 1.86446-1.049952 1.851157-7.611641 8.733901-14.582667 15.294304L534.459354 594.082264c-6.971027 6.560403-15.367573 13.67032-18.65865 15.799816 0 0 0 0-3.791493 0s-3.791493 0-3.791493 0c-3.289031-2.129496-11.683531-9.23839-18.654557-15.798793l-178.911417-168.367302c-6.971027-6.560403-13.533738-13.442123-14.58369-15.293281 0 0 0 0 0.732715-1.86446C297.550879 406.693784 297.550879 406.693784 297.550879 406.693784zM779.537192 356.721749c-6.787848 6.750737-20.172178 12.27351-29.744547 12.27351l-92.710969 0c-9.57237 0-17.405053-7.831347-17.405053-17.404357l0-28.636143c0-9.571987 7.83166-17.404357 17.405053-17.404357l92.710969 0c9.57237 0 22.964886-5.516633 29.759898-12.25816l106.278478-105.442283c6.795011-6.742551 4.523185-12.25816-5.050208-12.25816L657.70694 175.591798c-9.57237 0-17.405053-7.831347-17.405053-17.404357l0-90.034393c0-9.571987-7.83166-17.404357-17.405053-17.404357L400.846306 50.748691c-9.57237 0-17.405053 7.831347-17.405053 17.404357l0 90.034393c0 9.571987-7.83166 17.404357-17.405053 17.404357L146.033387 175.591798c-9.57237 0-11.8882 5.560635-5.146402 12.355374L245.312184 293.195027c6.741797 6.795763 20.09031 12.355374 29.66268 12.355374l90.962072 0c9.57237 0 17.405053 7.831347 17.405053 17.404357l0 28.636143c0 9.571987-7.83166 17.404357-17.405053 17.404357l-91.985417 0c-9.57237 0-22.957723-5.522773-29.744547-12.27351L76.498113 189.911916c-6.786824-6.750737-12.329261-20.104857-12.316981-29.677867l0.209786-158.851597c0.01228-9.571987 7.855197-17.404357 17.427566-17.404357l860.617845 0c9.57237 0 17.405053 7.831347 17.405053 17.404357L959.841382 159.978223c0 9.571987-5.55267 22.92713-12.340518 29.677867L779.537192 356.721749z"  horiz-adv-x="1024" />

    
    <glyph glyph-name="xiangqing" unicode="&#59011;" d="M92.352-123.008v1014.016h568.384v-258.752h270.848v-755.264h-839.232zM828.864 533.376h-635.648v-65.344h635.712v65.344h-0.064zM828.864 370.112h-635.648v-65.28h635.712v65.28h-0.064zM828.864 206.976h-635.648v-65.344h635.712v65.344h-0.064zM828.864 43.648h-635.648v-65.28h635.712v65.28h-0.064zM693.696 891.008h31.872l206.080-189.824v-36.8h-237.952v226.624zM693.696 891.008z"  horiz-adv-x="1024" />

    
    <glyph glyph-name="ordinaryjianhao" unicode="&#58909;" d="M32 396l960 0 0-192.064-960 0 0 192.064Z"  horiz-adv-x="1024" />

    
    <glyph glyph-name="youjian1" unicode="&#58964;" d="M896 684 128 684C57.312 684 0 626.688 0 556l0-512c0-70.688 57.312-128 128-128l768 0c70.688 0 128 57.312 128 128L1024 556C1024 626.688 966.688 684 896 684zM928 620 512 300 96 620 928 620zM64 44 64 556l288-224-284.96-306.496C65.248 31.36 64 37.536 64 44zM113.792-18.272l288.768 307.712L512 206.72l104.704 83.232 293.504-308.224C905.632-19.328 118.368-19.328 113.792-18.272zM960 44c0-6.464-1.248-12.64-3.072-18.496L672 332l288 224L960 44z"  horiz-adv-x="1024" />

    
    <glyph glyph-name="shipin" unicode="&#59086;" d="M729.84 531.12 704 516 704 690.784C704 705.872 690.832 704 675.744 704L91.696 704C76.624 704 64 705.872 64 690.784l0-584.032C64 91.664 76.624 96 91.696 96l584.048 0C690.832 96 704 91.664 704 106.752L704 279.456l25.84-15.104L960 130.944 960 397.728 960 664.512 729.84 531.12z"  horiz-adv-x="1024" />

    
    <glyph glyph-name="renyuanjieshao" unicode="&#58992;" d="M499.428571 396.357486c50.570971 40.250514 83.106743 102.142171 83.106743 171.642514 0 121.000229-98.428343 219.428571-219.428571 219.428571s-219.428571-98.428343-219.428571-219.428571c0-70.250057 33.322057-132.714057 84.821943-172.928C94.677943 340.679314 0 209.428114 0 56.321829L0 18.285714c0-20.214857 16.356571-36.571429 36.571429-36.571429l658.285714 0c20.214857 0 36.571429 16.356571 36.571429 36.571429l0 38.036114C731.428571 210.750171 635.072 342.820571 499.428571 396.357486zM216.821029 568c0 80.6784 65.607314 146.285714 146.285714 146.285714s146.285714-65.607314 146.285714-146.285714c0-79.643429-64.036571-144.356571-143.285029-146.000457-0.142629 0-0.250514 0.036571-0.393143 0.036571-1.285486 0-2.570971-0.1792-3.856457-0.1792C281.786514 422.535314 216.821029 487.749486 216.821029 568zM73.142857 54.857143l0 1.464686c0 159.8208 128.8576 289.892571 288.107886 292.320914 0.607086 0 1.214171-0.071314 1.857829-0.071314 1.499429 0 2.964114 0.213943 4.463543 0.213943C528.036571 347.785143 658.285714 217.000229 658.285714 56.321829L73.142857 54.857143zM693.392457 640l329.142857 0 0-73.142857-329.142857 0 0 73.142857ZM693.392457 457.142857l329.142857 0 0-73.142857-329.142857 0 0 73.142857ZM804.571429 274.285714l217.963886 0 0-73.142857-217.963886 0 0 73.142857Z"  horiz-adv-x="1024" />

    
    <glyph glyph-name="tongxunluzhengchang" unicode="&#59004;" d="M989.257143-19.2c-20.178286 0-36.571429 16.393143-36.571429 36.571429s16.393143 36.571429 36.571429 36.571429c20.214857 0 36.571429 16.356571 36.571429 36.571429L892.042971 826.300343c-6.070857 38.893714-39.572114 68.714057-80.213943 68.714057-0.142629 0-0.142629 0.071314-0.250514 0.071314L211.399314 895.085714C174.292114 892.6208 144.221257 865.514057 137.221486 829.800229L7.186286 49.479314C4.042971 39.264914 1.828571 28.6208 1.828571 17.371429c0-60.500114 49.214171-109.714286 109.714286-109.714286l877.714286 0c20.214857 0 36.571429 16.356571 36.571429 36.571429S1009.472-19.2 989.257143-19.2zM885.792914-19.2 111.542857-19.2c-20.178286 0-36.571429 16.393143-36.571429 36.571429s16.393143 36.571429 36.571429 36.571429l774.250057 0c-4.035657-11.428571-6.250057-23.749486-6.250057-36.571429S881.757257-7.771429 885.792914-19.2zM111.542857 127.085714c-6.178743 0-12.178286-0.8576-18.071771-1.821257l2.071771 9.428114L210.079086 821.942857l607.5008 0 127.392914-694.857143L111.542857 127.085714zM574.114743 479.442286c18.929371 16.786286 31.1424 41.000229 31.1424 68.214857 0 50.428343-41.000229 91.428571-91.428571 91.428571s-91.428571-41.000229-91.428571-91.428571c0-27.214629 12.214857-51.428571 31.1424-68.214857C402.971429 456.407771 367.542857 405.6576 367.542857 346.514286l0-18.285714c0-10.106514 8.1792-18.285714 18.285714-18.285714l256 0c10.106514 0 18.285714 8.1792 18.285714 18.285714l0 18.285714C660.114286 405.6576 624.685714 456.407771 574.114743 479.442286z"  horiz-adv-x="1026" />

    
    <glyph glyph-name="shijian" unicode="&#59056;" d="M512.672312-142.642352c-245.069555 0-443.74036 198.670805-443.74036 443.74343 0 245.069555 198.670805 443.74343 443.74036 443.74343 245.074671 0 443.74343-198.672852 443.74343-443.74343C956.415742 56.028453 757.746984-142.642352 512.672312-142.642352zM512.672312 678.264113c-208.300117 0-377.160989-168.860872-377.160989-377.163035s168.860872-377.165082 377.160989-377.165082c208.302163 0 377.163035 168.862919 377.163035 377.165082S720.974475 678.264113 512.672312 678.264113zM726.380602 244.374098 501.720889 244.374098c-6.456039 0-12.217253 2.741437-16.359596 7.059789-4.318352 4.142343-7.063883 9.904581-7.063883 16.361643L478.29741 538.355643c0 12.571317 10.190083 22.7614 22.7614 22.7614l22.598694 0c12.56927 0 22.759353-10.190083 22.759353-22.7614l0-225.863121 179.963745 0c12.56927 0 22.759353-10.190083 22.759353-22.7614l0-22.598694C749.138932 254.563158 738.949872 244.374098 726.380602 244.374098z"  horiz-adv-x="1024" />

    
    <glyph glyph-name="weibo" unicode="&#58883;" d="M730.478 404.29c0 0 129.105 229.116-244.297 108.858 46.81 36.676 39.248 111.41 2.514 137.953-136.706 98.744-470.803-216.43-470.803-403.765 0-113.905 122.753-262.011 402.479-262.011 351.907 0 461.994 192.401 461.994 286.040-0 129.144-151.887 132.925-151.887 132.925zM431.945 34.611c-163.92-15.277-305.193 62.471-315.501 173.689-10.422 111.18 114.059 213.704 278.018 228.963 163.92 15.257 305.193-62.471 315.537-173.669 10.346-111.2-114.097-213.725-278.055-228.982zM374.060 357.020c-88.764-15.027-150.275-88.879-137.378-164.861 12.859-76.020 95.213-125.478 183.976-110.47 88.725 15.027 150.237 88.821 137.378 164.861-12.898 76.019-95.213 125.459-183.976 110.47zM358.631 140.168c-28.673-7.869-57.808 7.024-65.080 33.279-7.197 26.332 10.191 54.025 38.826 61.933 28.673 7.907 57.808-6.986 65.041-33.279 7.235-26.293-10.115-53.988-38.787-61.933zM433.096 224.574c-14.74 0-26.696 11.918-26.696 26.658 0 14.72 11.956 26.677 26.696 26.677 14.74 0 26.657-11.976 26.657-26.677 0.001-14.74-11.917-26.658-26.657-26.658zM950.689 688.353c-58.92 75.329-153.346 107.994-265.811 91.969-18.962-2.687-32.167-20.248-29.46-39.228 2.668-18.923 20.171-32.070 39.21-29.421 111.372 15.891 171.041-27.138 201.479-66.060 39.957-51.147 51.243-124.039 28.040-181.328-7.197-17.752 1.344-37.981 19.115-45.16 4.28-1.727 8.655-2.552 13.012-2.552 13.685 0 26.657 8.176 32.128 21.649 32.241 79.551 17.098 180.060-37.713 250.131zM718.214 654.478c-18.885-2.706-32.089-20.267-29.383-39.21 2.706-18.942 20.171-32.089 39.21-29.421 31.859 4.568 56.675-3.090 71.568-22.129 13.415-17.197 17.388-42.433 9.749-61.415-7.197-17.752 1.382-37.962 19.115-45.16 4.317-1.727 8.655-2.534 13.012-2.534 13.685 0 26.696 8.176 32.128 21.649 17.1 42.146 9.481 93.235-19.384 130.161-17.714 22.686-58.958 59.074-136.015 48.058z"  horiz-adv-x="1024" />

    
    <glyph glyph-name="set" unicode="&#58895;" d="M844.085 377.335c-7.838 29.287-19.433 57.037-34.262 82.688l65.095 98.246-92.812 92.812-98.246-65.095c-25.65 14.83-53.4 26.424-82.688 34.262l-23.438 115.485h-131.256l-23.439-115.486c-29.287-7.838-57.037-19.433-82.688-34.262l-98.246 65.095-92.812-92.812 65.095-98.246c-14.83-25.65-26.424-53.4-34.262-82.688l-115.484-23.437v-131.256l115.486-23.438c7.839-29.287 19.433-57.037 34.262-82.688l-65.095-98.246 92.812-92.812 98.246 65.095c25.65-14.83 53.4-26.424 82.688-34.262l23.439-115.486h131.256l23.438 115.486c29.287 7.838 57.037 19.433 82.688 34.262l98.246-65.095 92.813 92.812-65.095 98.246c14.83 25.65 26.424 53.4 34.262 82.688l115.486 23.438v131.256l-115.489 23.438zM667.5 288.268c0-85.822-69.572-155.393-155.393-155.393s-155.394 69.572-155.394 155.393 69.573 155.393 155.394 155.393 155.393-69.572 155.393-155.393z"  horiz-adv-x="1024" />

    
    <glyph glyph-name="qq" unicode="&#58882;" d="M116.435 218.286c-33.54-78.964-38.985-154.297-12.059-168.37 18.572-9.696 47.686 12.382 74.936 52.909 10.791-44.157 37.493-84.137 75.633-116.21-40.004-14.768-66.135-38.886-66.135-66.232 0-44.954 70.709-81.302 157.978-81.302 78.716 0 143.907 29.538 155.94 68.371 3.232 0.049 15.663 0.049 18.796 0 12.083-38.784 77.324-68.371 155.989-68.371 87.267 0 157.978 36.398 157.978 81.302 0 27.297-26.105 51.464-66.135 66.232 38.089 32.123 64.889 72.053 75.631 116.21 27.251-40.527 56.29-62.605 74.887-52.909 26.95 14.073 21.631 89.456-12.032 168.37-26.355 62.058-62.11 107.754-89.457 117.848 0.398 3.929 0.596 7.958 0.596 11.935 0 23.968-6.661 46.146-18.049 64.196 0.199 1.393 0.199 2.834 0.199 4.227 0 11.038-2.636 21.381-7.114 30.332-6.909 161.309-111.93 289.402-281.866 289.402-170.036 0-275.106-128.093-281.943-289.402-4.525-9.001-7.135-19.343-7.135-30.332 0-1.393 0.099-2.835 0.15-4.227-11.288-18.05-17.951-40.178-17.951-64.196 0-3.978 0.15-7.955 0.498-11.935-27.151-10.094-63.028-55.841-89.333-117.848z"  horiz-adv-x="1024" />

    
    <glyph glyph-name="luxiandaohang" unicode="&#58920;" d="M676.328138 483.532013 822.32221 483.532013 603.296821 748.208115 384.305201 483.532013 530.265504 483.532013 530.265504 294.411725 201.676767 294.411725 201.676767 181.045771 201.676767 143.134323 201.676767-148.208115 347.738377-148.208115 347.738377 143.134323 566.798559 143.134323 566.798559 144.312148 676.328138 144.312148Z"  horiz-adv-x="1024" />

    
    <glyph glyph-name="iconjiage" unicode="&#58932;" d="M636.635625 153.179097c0-9.787924 2.739391-16.877389 8.374738-21.676695 5.417383-4.615111 15.398712-8.642844 29.698392-11.989055l0 65.168232c-10.417257-1.235131-19.35379-4.394077-26.606984-9.410324C640.387066 169.933689 636.635625 162.707101 636.635625 153.179097zM913.445068 199.352719c-13.187347 30.347169-31.003108 56.867172-53.43705 79.562057-22.424732 22.694885-48.819892 40.638559-79.168084 53.837162-30.347169 13.193487-62.673411 19.792788-96.982822 19.792788-34.83232 0-67.424622-6.600325-97.771791-19.792788-30.343075-13.19758-56.737212-31.142278-79.166037-53.837162-22.429849-22.694885-40.244586-49.214888-53.438073-79.562057-13.19758-30.352285-19.794835-62.673411-19.794835-96.982822 0-34.308387 6.596232-66.63463 19.794835-96.981798 13.193487-30.344099 31.007201-56.863079 53.438073-79.558987 22.428825-22.698978 48.822962-40.510646 79.166037-53.441143 30.347169-12.927427 62.939471-19.394722 97.771791-19.394722 34.30941 0 66.635653 6.462179 96.982822 19.394722 30.347169 12.926404 56.743352 30.742165 79.168084 53.441143 22.432918 22.695908 40.244586 49.210795 53.43705 79.558987 13.201673 30.347169 19.794835 62.673411 19.794835 96.981798C933.23888 136.679307 926.642648 169.000434 913.445068 199.352719zM756.930385 2.635405c-14.07353-11.924587-32.498158-19.284205-54.798047-21.896706l0-64.241117-27.423583 0L674.708755-20.431963c-14.506389 0.295735-28.341488 1.816369-41.167608 4.527107-13.824867 2.918469-25.998117 6.767124-36.177967 11.43954l-1.921769 0.881067L595.441411 36.781086l7.206122 0 0.87288-0.644683c2.093684-1.546216 6.000668-3.868097 11.613502-6.901177 5.596462-3.028986 11.095709-5.547343 16.346293-7.487531 5.949502-2.175549 13.041014-4.246721 21.068851-6.152117 6.925736-1.644453 14.366196-2.713808 22.158672-3.187599l0 70.281693c-3.695159 0.751107-7.210215 1.494027-10.478655 2.215458-4.072759 0.898463-7.871271 1.832741-11.291161 2.778276-19.690458 4.950755-34.160008 12.638855-42.928718 22.828938-8.846482 10.277064-13.332656 23.087834-13.332656 38.0762 0 18.329461 7.29822 34.013675 21.691021 46.615691 13.614066 11.920494 32.55751 19.159362 56.340169 21.538549l0 48.304146 27.423583 0 0-47.759747c11.032264-0.414439 22.424732-1.828648 33.917484-4.210905 12.611226-2.618641 23.373337-5.705955 31.985482-9.17394l2.065032-0.830925 0-40.123836-6.698562 0-0.793062 0.48607c-8.661264 5.309936-17.819854 10.079566-27.221991 14.175861-8.483208 3.694135-19.657712 6.152117-33.255405 7.319709l0-69.77004c2.816139-0.530073 5.817496-1.180895 8.954953-1.941212 4.061502-0.986467 7.631818-1.77646 10.614755-2.349511 18.130939-3.895727 32.354895-10.711969 42.349527-20.274766 10.221806-9.782807 15.405875-23.236214 15.405875-39.984666C779.457448 31.439428 771.877819 15.297796 756.930385 2.635405zM730.500433 67.649118c-5.872754 4.366448-15.404852 7.965415-28.368094 10.715039l0-65.363683c11.701506 1.563612 20.86726 4.817726 27.281343 9.691733 6.78759 5.154393 10.085706 12.784164 10.085706 23.326265C739.499387 56.071432 736.556359 63.146571 730.500433 67.649118zM386.978589 103.15989c0 31.137161 4.486174 60.82839 13.459546 89.063455 8.971325 28.237111 21.639856 54.232159 38.000476 77.983095 16.360619 23.750937 35.755342 44.862767 58.189284 63.335491 22.432918 18.4717 47.106878 33.248242 74.02597 44.329625 1.579985 4.228301 2.901073 8.184403 3.957125 11.875468l3.961218 11.090593c1.050935 3.685949 2.106987 7.124258 3.163039 10.287297 5.279237 1.583055 10.29139 4.489244 15.039531 8.708336 4.226255 3.695159 8.051373 8.840342 11.484565 15.436574 3.429099 6.596232 5.67321 15.699564 6.729262 27.314089 1.056052 8.446369 0.923022 15.570627-0.399089 21.37789-1.319042 5.802146-3.035126 10.553357-5.146207 14.249539-2.112104 4.222161-5.012154 7.65126-8.708336 10.29139 0 21.638833-1.316995 43.016723-3.961218 64.12446-2.631944 18.475793-7.121188 37.871539-13.45443 58.193377-6.335289 20.317745-16.360619 38.922475-30.086226 55.81112-5.802146 7.390317-13.854543 14.776542-24.14184 22.166859-10.295484 7.391341-22.033829 13.987572-35.231409 19.793812-13.193487 5.806239-27.314089 10.420327-42.35669 13.853519-15.042601 3.430122-30.214139 5.146207-45.523823 5.146207-12.136412 0-24.668843-0.923022-37.600363-2.772136-12.93152-1.850138-25.990954-5.408173-39.184441-10.691503-13.19758-5.275143-25.862018-12.531408-38.004569-21.767769-12.137435-9.236362-23.484877-21.239743-34.042327-36.021401-11.081383-15.304568-19.262716-32.722262-24.540929-52.253084-5.279237-19.528775-8.974395-37.734416-11.086499-54.627155-2.112104-20.055778-3.163039-40.111556-3.163039-60.167335-4.755304-5.27412-8.18031-10.819416-10.296507-16.625656-2.64013-5.803169-4.219091-12.403494-4.747117-19.794835-0.532119-7.386224 0.528026-15.566534 3.167133-24.536836 2.64013-8.974395 5.802146-15.836687 9.498328-20.587897 3.695159-4.752234 7.124258-8.446369 10.29139-11.081383 3.695159-2.64013 7.390317-4.489244 11.086499-5.541203 2.639107-8.451486 5.275143-16.626679 7.91425-24.545022 2.639107-6.862291 5.674233-13.592576 9.103332-20.184715 3.433192-6.601348 7.258311-11.747555 11.480472-15.442714 8.974395-7.385201 17.150612-14.647605 24.540929-21.771863 7.391341-7.125281 11.610432-16.755616 12.665461-28.893051 0.532119-8.446369 0.793062-16.09456 0.793062-22.957875 0-6.862291-1.316995-13.46364-3.956102-19.792788-2.636037-6.335289-6.996344-12.798491-13.06455-19.395746-6.068206-6.596232-14.647605-13.326517-25.730011-20.188808-9.501398-5.806239-19.922748-10.686387-31.275307-14.643512-11.343349-3.961218-23.085788-7.655354-35.222199-11.085476-12.141528-3.433192-24.01802-6.995321-35.626405-10.69048-11.613502-3.695159-22.171975-8.575306-31.66928-14.647605-9.502421-6.069229-17.549701-13.3214-24.15105-21.768793-6.592139-8.441253-10.95347-19.265786-13.060457-32.462343-5.278213-34.3002-6.462179-62.407352-3.562129-84.313268 2.90619-21.900799 7.258311-34.961256 13.06455-39.184441 3.163039-2.639107 10.815323-5.282307 22.956851-7.91425 12.137435-2.6432 26.915-5.28333 44.334741-7.918343 17.416671-2.639107 36.811394-5.149277 58.18826-7.52437 21.372773-2.368954 42.883693-4.485151 64.522526-6.329149 21.639856-1.846044 42.618657-3.300162 62.936401-4.356214 20.321838-1.056052 38.132482-1.579985 53.43705-1.579985l21.37789 0c-12.669554 22.162766-22.565948 45.785789-29.690206 70.854744C390.541741 49.45985 386.978589 75.712771 386.978589 103.15989z"  horiz-adv-x="1024" />

    
    <glyph glyph-name="fuzhi" unicode="&#59037;" d="M996.096 461.536c-0.064 5.12-1.984 10.176-5.888 14.08l-141.248 161.984c-4.672 4.672-11.008 6.528-17.024 5.696L370.24 643.296c-33.472 0-60.608-27.136-60.608-60.608l0-726.976c0-33.472 27.136-60.608 60.608-60.608l565.44 0c33.472 0 60.608 27.136 60.608 60.608L996.288 461.536 996.096 461.536zM932.736-116.512c0-10.304-8.32-18.688-18.688-18.688l-522.24 0c-10.304 0-18.688 8.32-18.688 18.688L373.12 554.976c0 10.304 8.32 18.688 18.688 18.688l391.68 0 0-111.936c0-30.912 25.088-56 56-56l93.248 0L932.736-116.512zM92.032 88.224l0 629.504c0 11.136 9.024 20.224 20.224 20.224l491.584 0.064c11.136 0 20.224-9.024 20.224-20.224l0-34.048 69.376-0.064L693.44 744.288c0 33.472-27.136 60.608-60.608 60.608L88.384 804.896c-33.472 0-60.608-27.136-60.608-60.608l0-686.592c0-33.472 27.136-60.608 60.608-60.608l180.928 0 0 70.912L112.256 68C101.056 68 92.032 77.024 92.032 88.224L92.032 88.224zM684.352 408.416 621.44 408.416 621.44 250.72 463.808 250.72 463.808 187.68 621.44 187.68 621.44 30.048 684.48 30.048 684.48 187.68 842.112 187.68 842.112 250.72 684.48 250.72 684.48 408.416Z"  horiz-adv-x="1024" />

    
    <glyph glyph-name="weibiaoti2" unicode="&#58934;" d="M446.048 314.048C454.72 305.376 466.72 300 480 300c13.248 0 25.248 5.376 33.952 14.048l128 128c8.672 8.672 14.048 20.672 14.048 33.952C656 502.496 634.496 524 608 524c-13.248 0-25.248-5.376-33.952-14.048L480 415.872l-30.048 30.048C441.248 454.624 429.248 460 416 460c-26.528 0-48-21.504-48-48 0-13.248 5.376-25.248 14.048-33.952L446.048 314.048zM975.936 748 48.064 748c-26.496 0-48-21.504-48-48l0-640c0-26.496 21.504-48 48-48L384 12l0-66.784L304-132 304-148l416 0 0 16L640-52l0 64 335.936 0c26.496 0 48 21.504 48 48l0 640C1023.936 726.496 1002.432 748 975.936 748zM960 140 64 140 64 684l896 0L960 140z"  horiz-adv-x="1024" />

    
    <glyph glyph-name="fanhui" unicode="&#58929;" d="M738.145103 641.751172 663.234207 716.662069 313.114483 366.542345 312.937931 366.701241 238.768552 292.549517 238.945103 292.372966 238.768552 292.214069 313.679448 217.303172 313.838345 217.462069 658.996966-127.696552 733.166345-53.509517 388.007724 291.631448Z"  horiz-adv-x="1024" />

    
    <glyph glyph-name="xiugai" unicode="&#58887;" d="M940.034145 507.257368c34.905998 35.126009 24.573675 81.652671-10.333346 116.771517l-84.229356 84.777849c-34.905998 35.118845-91.473341 35.118845-126.363989 0l210.593346-211.940017L940.034145 507.257368zM536.7021 86.960952l358.034373 360.318392L684.127777 659.227548l-358.034373-360.310206L536.7021 86.960952zM642.006448 532.057193c23.271006 23.410176 60.972677 23.410176 84.243683 0l42.12133-42.392506c23.25668-23.410176 23.25668-61.367673 0-84.777849l-189.547007-190.755532c-23.25668-23.409153-60.988026-23.409153-84.244706 0L452.458417 256.524836c-23.25668 23.410176-23.25668 61.367673 0 84.777849L642.006448 532.057193zM247.485069 66.121322c-4.859681-32.747845 17.460674-54.549384 49.849338-48.701189l190.103686 34.350342L276.829398 263.717655 247.485069 66.121322zM937.151491 165.115963c-16.45067 0-35.492352-13.420661-35.492352-29.973662l0-120.898511c0-57.387012-46.235021-103.907535-103.254665-103.907535L225.589386-89.663744c-57.020668 0-103.254665 46.520523-103.254665 103.907535L122.334721 585.748023c0 57.394175 46.233997 103.913675 103.254665 103.913675l253.769704 0c16.45067 0 29.78435-1.565658 29.78435 14.987343 0 16.553001-13.33368 44.961004-29.78435 44.961004L181.521728 749.610044c-65.788355 0-119.135354-53.676503-119.135354-119.895671L62.386374-29.71335c0-66.219167 53.346999-119.896694 119.135354-119.896694l660.950404 0c65.787332 0 119.135354 53.677527 119.135354 119.896694L961.607486 135.142302C961.607486 151.695303 953.601138 165.115963 937.151491 165.115963z"  horiz-adv-x="1024" />

    
    <glyph glyph-name="weiwangzhan" unicode="&#58995;" d="M382.129 356.735v-0.649h260.753v0.792c32.766 5.576 55.417 37.432 57.162 69.888-2.123 40.041-30.64 68.541-70.691 70.692-0.791 0.027-1.512-0.036-2.268-0.019 0.881 3.95 1.476 7.961 1.709 11.983-1.996 37.047-28.374 63.415-65.436 65.403-21.735 1.16-39.835-9.932-51.467-26.143-11.623 15.312-29.662 24.965-51.531 26.143-36.957 1.987-63.557-31.379-65.402-65.403-0.224-4.389 0.072-8.591 0.755-12.656-2.302 0.35-4.66 0.548-7.079 0.693-39.961 2.158-68.704-33.915-70.692-70.692-2.024-37.584 29.796-65.244 64.187-70.031zM855.156 695.211h-696.742v-459.401h696.723v459.401h0.018zM784.518 306.429h-555.484v318.181h555.466v-318.181h0.018zM855.047 214.472h-696.649l-100.273-133.99v-32.205h897.177v32.205z"  horiz-adv-x="1024" />

    
    <glyph glyph-name="wancheng" unicode="&#58904;" d="M511.998465 747.437565C264.885368 747.437565 64.56704 547.109004 64.56704 300.00614s200.317305-447.442682 447.431425-447.442682c247.092631 0 447.432449 200.338794 447.432449 447.442682S759.091096 747.437565 511.998465 747.437565zM511.998465-91.507742c-216.243019 0-391.501602 175.302585-391.501602 391.513882 0 216.22153 175.258583 391.502625 391.501602 391.502625 216.201064 0 391.504672-175.281095 391.504672-391.502625C903.503137 83.794843 728.199529-91.507742 511.998465-91.507742zM810.957371 472.620499l-19.35686 20.186761c-10.704806 11.142781-28.402887 11.491729-39.543621 0.808412L429.307138 183.723763 293.72316 324.932856c-10.704806 11.142781-28.401864 11.502985-39.543621 0.797156l-20.165272-19.368116c-11.142781-10.682293-11.491729-28.389584-0.808412-39.532365l154.940838-161.363108 19.379373-20.187785c10.704806-11.141758 28.40084-11.490705 39.543621-0.786922l363.101785 348.605629C821.312206 443.782707 821.662177 461.478741 810.957371 472.620499z"  horiz-adv-x="1024" />

    
    <glyph glyph-name="yuangongzheng" unicode="&#59022;" d="M616.106667 421.873067l238.8992 0 0-34.133333-238.8992 0 0 34.133333ZM616.072533 217.073067l238.933333 0 0-34.133333-238.933333 0 0 34.133333ZM616.106667 319.473067l170.359467 0 0-34.133333-170.359467 0 0 34.133333ZM581.9392 626.673067l0 102.4-136.533333 0 0-102.4-375.466667 0 0-750.933333 887.466667 0 0 750.933333L581.9392 626.673067zM923.272533 592.539733l0-68.266667-341.333333 0 0 68.266667L923.272533 592.539733zM479.5392 694.939733l68.266667 0 0-170.666667-68.266667 0L479.5392 694.939733zM104.072533 592.539733l341.333333 0 0-68.266667-341.333333 0L104.072533 592.539733zM104.072533-90.126933l0 580.266667 341.333333 0 136.533333 0 341.333333 0 0-580.266667L104.072533-90.126933zM573.098667 61.5616c-24.661333 10.2912-82.824533 30.481067-118.852267 41.1136-3.054933 0.9728-3.5328 1.092267-3.5328 13.892267 0 10.5472 4.334933 21.1968 8.567467 30.208 4.590933 9.762133 10.0352 26.197333 11.9808 40.96 5.461333 6.331733 12.9024 18.8416 17.7152 42.7008 4.164267 20.992 2.235733 28.654933-0.5632 35.84-0.3072 0.768-0.597333 1.501867-0.836267 2.2528-1.058133 4.932267 0.392533 30.532267 4.010667 50.397867 2.474667 13.6192-0.648533 42.615467-19.421867 66.594133-11.8272 15.1552-34.491733 33.757867-75.9296 36.334933l-22.7328-0.017067c-40.704-2.56-63.402667-21.179733-75.229867-36.317867-18.773333-23.978667-21.896533-52.974933-19.438933-66.594133 3.6352-19.882667 5.0688-45.4656 4.027733-50.312533-0.2048-0.836267-0.529067-1.570133-0.836267-2.338133-2.7648-7.185067-4.727467-14.830933-0.529067-35.84 4.7616-23.8592 12.219733-36.369067 17.698133-42.7008 1.911467-14.762667 7.3728-31.197867 11.9808-40.96 3.345067-7.168 4.949333-16.896 4.949333-30.651733 0-12.8-0.494933-12.9536-3.362133-13.858133-37.239467-11.025067-96.529067-32.426667-118.6304-42.103467-17.5104-7.509333-21.794133-20.992-21.794133-33.1776 0-3.396267 0-8.738133 0-14.728533l34.133333 0 0 14.728533c0 0.546133 0.034133 0.989867 0.068267 1.314133 0.3072 0.1536 0.699733 0.3584 1.262933 0.597333 20.992 9.1648 79.172267 30.139733 115.3024 40.840533 27.170133 8.635733 27.170133 34.133333 27.170133 46.3872 0 18.909867-2.594133 33.245867-8.192 45.192533-3.4304 7.287467-7.6288 20.206933-8.994133 30.788267l-1.3312 10.1888-6.7072 7.765333c-1.024 1.160533-6.229333 7.953067-10.069333 27.0848-2.577067 12.9536-1.672533 15.325867-1.1264 16.759467 0.904533 2.167467 1.672533 4.386133 2.389333 7.4752 2.986667 13.806933-0.989867 48.2816-3.7888 63.6416-0.9216 5.034667 0.392533 23.739733 12.714667 39.492267 10.8032 13.824 27.4432 21.623467 49.5104 23.210667l20.462933 0.017067c22.459733-1.604267 39.338667-9.403733 50.141867-23.227733 12.322133-15.735467 13.6192-34.4576 12.714667-39.458133-2.798933-15.342933-6.7584-49.783467-3.805867-63.658667l0.3072-1.348267 0.375467-1.314133c0.443733-1.467733 0.9728-2.9184 1.706667-4.795733 0.546133-1.4336 1.4848-3.805867-1.0752-16.725333-3.874133-19.165867-9.096533-25.992533-10.120533-27.170133l-6.656-7.7312-1.3312-10.103467c-1.399467-10.5984-5.597867-23.6032-8.994133-30.8736-5.512533-11.690667-11.8272-27.3408-11.8272-44.731733 0-12.270933 0-37.802667 28.0064-46.626133 34.0992-10.069333 91.255467-29.832533 115.029333-39.7312 3.601067-1.570133 4.898133-3.464533 5.2736-4.164267l0-13.789867 34.133333 0c0 6.007467 0 11.332267 0 14.728533C599.005867 39.1872 590.592 54.052267 573.098667 61.5616z"  horiz-adv-x="1024" />

    
    <glyph glyph-name="yuangongzhenghover" unicode="&#59023;" d="M581.956267 626.263467 581.956267 728.663467 445.422933 728.663467 445.422933 626.263467 445.422933 489.730133 581.956267 489.730133ZM616.0896 626.263467l341.333333 0 0-136.533333-341.333333 0 0 136.533333ZM69.956267 626.263467l341.333333 0 0-136.533333-341.333333 0 0 136.533333ZM616.0896 455.5968l-34.133333 0-136.533333 0-34.133333 0-341.333333 0 0-580.266667 887.466667 0 0 580.266667L616.0896 455.5968zM616.106667 284.930133l170.376533 0 0-34.133333L616.106667 250.7968 616.106667 284.930133zM599.022933-22.286933l-34.133333 0 0 13.806933c-0.3584 0.699733-1.672533 2.594133-5.2736 4.164267-23.773867 9.898667-80.930133 29.661867-115.029333 39.7312-28.0064 8.840533-28.0064 34.372267-28.0064 46.626133 0 17.408 6.314667 33.041067 11.8272 44.731733 3.396267 7.2704 7.594667 20.2752 8.994133 30.8736l1.3312 10.103467 6.656 7.7312c1.024 1.160533 6.2464 8.004267 10.120533 27.170133 2.56 12.936533 1.6384 15.291733 1.0752 16.725333-0.733867 1.860267-1.245867 3.328-1.706667 4.795733l-0.375467 1.297067-0.3072 1.365333c-2.9696 13.8752 1.006933 48.298667 3.805867 63.658667 0.904533 5.000533-0.392533 23.7056-12.714667 39.458133-10.820267 13.824-27.682133 21.640533-50.141867 23.227733l-20.462933-0.017067c-22.0672-1.5872-38.724267-9.403733-49.5104-23.1936-12.322133-15.7696-13.636267-34.474667-12.714667-39.492267 2.798933-15.36 6.7584-49.8176 3.7888-63.624533-0.7168-3.106133-1.4848-5.307733-2.389333-7.4752-0.529067-1.4336-1.450667-3.84 1.1264-16.759467 3.84-19.131733 9.045333-25.941333 10.069333-27.101867l6.7072-7.765333 1.3312-10.171733c1.365333-10.5984 5.563733-23.5008 8.994133-30.805333 5.597867-11.9296 8.192-26.2656 8.192-45.192533 0-12.2368 0-37.7344-27.170133-46.370133-36.130133-10.7008-94.293333-31.658667-115.3024-40.840533-0.5632-0.238933-0.9728-0.4608-1.262933-0.597333-0.034133-0.341333-0.068267-0.768-0.068267-1.3312l0-14.728533-34.133333 0c0 6.007467 0 11.332267 0 14.728533 0 12.202667 4.283733 25.668267 21.794133 33.194667 22.101333 9.659733 81.408 31.061333 118.6304 42.103467 2.8672 0.904533 3.362133 1.041067 3.362133 13.841067 0 13.7728-1.604267 23.5008-4.949333 30.6688-4.625067 9.762133-10.069333 26.197333-11.9808 40.96-5.4784 6.331733-12.936533 18.8416-17.698133 42.7008-4.1984 20.992-2.235733 28.637867 0.529067 35.84 0.3072 0.768 0.631467 1.501867 0.836267 2.338133 1.041067 4.829867-0.392533 30.429867-4.027733 50.312533-2.474667 13.6192 0.6656 42.615467 19.438933 66.577067 11.8272 15.172267 34.525867 33.774933 75.229867 36.334933l22.7328 0.017067c41.437867-2.577067 64.1024-21.179733 75.9296-36.352 18.773333-23.9616 21.879467-52.974933 19.421867-66.577067-3.618133-19.882667-5.0688-45.482667-4.010667-50.414933 0.238933-0.733867 0.529067-1.467733 0.836267-2.235733 2.798933-7.202133 4.727467-14.830933 0.5632-35.84-4.8128-23.8592-12.253867-36.369067-17.7152-42.7008-1.9456-14.762667-7.406933-31.197867-11.9808-40.96-4.232533-8.994133-8.567467-19.6608-8.567467-30.208 0-12.8 0.477867-12.936533 3.5328-13.892267 36.027733-10.632533 94.208-30.839467 118.852267-41.130667 17.493333-7.492267 25.924267-22.3744 25.924267-34.56C599.022933-10.954667 599.022933-16.279467 599.022933-22.286933zM855.022933 148.379733l-238.933333 0 0 34.133333 238.933333 0L855.022933 148.379733zM855.022933 353.1968 616.123733 353.1968l0 34.133333 238.8992 0L855.022933 353.1968z"  horiz-adv-x="1024" />

    
    <glyph glyph-name="diannao" unicode="&#58900;" d="M916.095431 747.53171l-806.580179 0c-38.815027 0-70.393233-31.578206-70.393233-70.393233L39.122019 94.60812c0-38.815027 31.578206-70.39221 70.393233-70.39221l332.896856 0 0-128.074957L333.565075-103.859048c-14.128789 0-25.582655-11.453866-25.582655-25.582655s11.453866-25.582655 25.582655-25.582655L692.045609-155.024357c14.129812 0 25.582655 11.453866 25.582655 25.582655s-11.452843 25.582655-25.582655 25.582655L583.198575-103.859048 583.198575 24.21591l332.896856 0c38.815027 0 70.39221 31.577183 70.39221 70.39221L986.487641 677.139499C986.487641 715.953504 954.910459 747.53171 916.095431 747.53171zM109.515253 696.3664l806.580179 0c10.601452 0 19.2269-8.625448 19.2269-19.227923l0-467.328591L90.287329 209.809885 90.287329 677.139499C90.287329 687.740952 98.9138 696.3664 109.515253 696.3664zM532.033265-103.859048l-38.455847 0L493.577419 24.21591l38.455847 0L532.033265-103.859048zM916.095431 75.38122l-806.580179 0c-10.601452 0-19.227923 8.625448-19.227923 19.2269l0 64.037479 845.035002 0 0-64.037479C935.322331 84.006667 926.697907 75.38122 916.095431 75.38122z"  horiz-adv-x="1024" />

    
    <glyph glyph-name="daima" unicode="&#58960;" d="M342.677 216.998M920.887 284.954l-206.45-206.45c-8.142-8.146-21.347-8.146-29.493 0l-29.493 29.493c-8.146 8.142-8.146 21.347 0 29.493l162.213 162.213L655.452 461.911c-8.146 8.146-8.146 21.351 0 29.497l29.493 29.493c8.146 8.146 21.351 8.146 29.493 0l206.45-206.45C929.038 306.305 929.038 293.1 920.887 284.954zM434.759-45.498l-37.643 10.54c-10.394 2.911-16.788 13.193-14.281 22.969l167.635 644.738c2.682 10.01 13.877 15.712 25.001 12.73l40.287-10.794c11.128-2.982 17.973-13.514 15.287-23.528L458.12-33.068C455.609-42.845 445.153-48.409 434.759-45.498zM368.545 107.997l-29.493-29.493c-8.142-8.146-21.347-8.146-29.493 0l-206.45 206.45c-8.146 8.146-8.146 21.351 0 29.497l206.45 206.45c8.146 8.146 21.351 8.146 29.493 0l29.493-29.493c8.146-8.146 8.146-21.351 0-29.497L206.332 299.703 368.545 137.49C376.691 129.344 376.691 116.139 368.545 107.997z"  horiz-adv-x="1024" />

    
    <glyph glyph-name="msnui-gift" unicode="&#59133;" d="M474.908 705.106h-131.773q-13.665 0-20.987 6.345t-10.249 16.105-2.929 21.962 1.952 22.938q0.976 10.737 3.904 23.427t8.297 21.474 14.153 11.713 21.474-4.88q14.642-8.785 33.187-19.034t36.116-20.498 32.699-18.546 22.938-13.178q9.761-6.833 14.642-15.129t3.904-15.618-7.809-12.201-19.522-4.88zM551.044 706.082h130.797q13.665 0 20.987 6.345t10.249 16.105 2.929 21.962-0.976 22.938q-1.952 10.737-4.393 22.938t-7.809 20.986-14.153 11.713-21.474-3.904q-14.642-8.785-33.187-19.034t-36.603-20.498-33.187-18.546-21.962-13.178q-10.737-6.833-15.618-15.129t-3.904-15.618 7.809-12.201 20.498-4.88zM461.243 641.66h-283.069q-31.236 0-40.508-10.249t-9.273-32.699v-85.897q0-24.403 10.249-36.116t40.508-11.713h282.093v176.674zM567.638 641.66h279.164q31.236 0 42.46-12.201t11.225-34.652v-83.944q0-23.427-10.249-34.652t-40.508-11.225h-282.093v176.674zM461.243 413.253h-299.662v-368.965q0-49.781 28.307-77.112t87.848-27.331h183.507v473.407zM567.638 413.253h298.686v-366.037q-0.976-49.781-28.307-78.576t-86.873-28.795h-183.507v473.407z"  horiz-adv-x="1024" />

    
    <glyph glyph-name="yuanquan" unicode="&#58915;" d="M940.391279 709.874041M982.404138 609.795719M524.281209 546.803036c62.642712 0 121.537054-24.394596 165.831886-68.690452 44.295855-44.295855 68.690452-103.190197 68.690452-165.833933s-24.394596-121.537054-68.690452-165.832909c-44.294832-44.295855-103.189174-68.690452-165.831886-68.690452-62.644759 0-121.540124 24.394596-165.835979 68.691475-44.295855 44.294832-68.690452 103.18815-68.690452 165.831886s24.394596 121.538077 68.690452 165.832909C402.741086 522.407416 461.63645 546.803036 524.281209 546.803036M524.281209 690.065903c-208.648041 0-377.789299-169.142282-377.789299-377.787252 0-208.644971 169.141258-377.786229 377.789299-377.786229 208.644971 0 377.785206 169.141258 377.785206 377.786229C902.065392 520.923622 732.925157 690.065903 524.281209 690.065903L524.281209 690.065903z"  horiz-adv-x="1024" />

    
    <glyph glyph-name="check-trigon" unicode="&#58914;" d="M0 800v-1024l1024 1024h-1024zM330.123 283.91c-0.076-0.080-0.184-0.105-0.234-0.184-0.077-0.080-0.105-0.208-0.185-0.288-1.676-1.704-3.72-2.673-5.688-3.829-0.995-0.575-1.832-1.492-2.908-1.939-3.2-1.364-6.632-2.044-10.068-2.044-3.248 0-6.528 0.628-9.62 1.836-0.996 0.392-1.808 1.204-2.753 1.756-1.912 1.048-3.908 1.939-5.555 3.511-0.081 0.080-0.109 0.185-0.185 0.264-0.079 0.076-0.184 0.105-0.264 0.181l-210.108 206.992c-10.328 10.144-10.459 26.763-0.288 37.068 10.172 10.328 26.764 10.431 37.092 0.26l190.972-188.168 349.598 372.219c9.885 10.564 26.504 11.036 37.040 1.152 10.54-9.936 11.092-26.528 1.129-37.040l-367.973-391.748z"  horiz-adv-x="1024" />

    
    <glyph glyph-name="zuo" unicode="&#59066;" d="M280.992 278.496l416.672-416.768c12.544-12.48 32.8-12.512 45.312 0 12.544 12.512 12.544 32.832 0.032 45.312l-373.504 373.568c0 0 0.736-0.736-10.496 10.496-11.232 11.2 1.088 21.312 1.088 21.312l10.688 10.688 369.952 369.952c12.544 12.512 12.544 32.736 0 45.248-12.512 12.512-32.768 12.544-45.28 0l-412.032-412c-0.448-0.448-0.768-0.832-1.152-1.248-0.512-0.448-0.896-0.8-1.28-1.216C268.48 311.328 268.48 290.976 280.992 278.496z"  horiz-adv-x="1024" />

    
    <glyph glyph-name="ditu" unicode="&#58942;" d="M581.6 420.896c52.992 0 96 42.976 96 96s-43.008 96-96 96c-53.024 0-96-42.976-96-96S528.576 420.896 581.6 420.896zM581.6 548.896c17.696 0 32-14.336 32-32s-14.304-32-32-32c-17.664 0-32 14.336-32 32S563.936 548.896 581.6 548.896zM960 589.344c0 17.664-14.304 32-32 32l-64 0c-17.664 0-32-14.336-32-32s14.336-32 32-32l32 0 0-240.096-150.464 57.92 15.712 23.136c0.672 0.992 0.8 2.144 1.376 3.2l0.736 0C786.464 436.672 800 478.72 800 524c0 123.712-100.288 224-224 224s-224-100.288-224-224c0-38.656 10.336-74.72 27.616-106.464L258.656 476 258.656 557.344l32 0c17.664 0 32 14.336 32 32s-14.336 32-32 32l-32 0L258.656 652c0 53.024-42.976 96-96 96s-96-42.976-96-96l0-704c0-53.024 42.976-96 96-96s96 42.976 96 96l0 32L928-20c17.696 0 32 14.304 32 32L960 588c0 0.224-0.128 0.448-0.128 0.672C959.872 588.896 960 589.088 960 589.344zM896 248.608 896 44 433.056 44l106.88 147.616 11.328-15.52c3.104-4.224 7.072-7.296 11.328-9.632 0.544-0.416 0.768-0.992 1.312-1.376 14.592-9.92 34.976-5.536 45.408 9.952l99.2 145.728L896 248.608zM576 684c88.384 0 160-71.648 160-160 0-30.304-8.672-58.368-23.424-82.368l0.096 0-4-7.104c-0.064-0.096-0.224-0.16-0.288-0.288l-128.48-188.832-131.328 179.872-9.248 16.32 0.096 0C424.672 465.632 416 493.696 416 524 416 612.352 487.616 684 576 684zM162.656 684c17.664 0 32-14.336 32-32l0-613.888C184.64 41.696 173.952 44 162.656 44s-21.952-2.304-32-5.888L130.656 652C130.656 669.664 144.992 684 162.656 684zM162.656-84c-17.664 0-32 14.304-32 32s14.336 32 32 32 32-14.304 32-32S180.352-84 162.656-84zM258.656 404.896l194.08-93.824 47.552-65.152L354.016 44 258.656 44 258.656 404.896z"  horiz-adv-x="1024" />

    
    <glyph glyph-name="no-search-results" unicode="&#58902;" d="M951.936-107.584l-181.024 181.056c-1.152 1.152-2.624 1.664-3.872 2.592 59.584 69.856 95.744 160.32 95.744 259.328 0 220.896-179.136 400.064-400.064 400.064s-400.064-179.168-400.064-400.064c0-35.296 5.024-69.312 13.6-101.92 10.368 15.808 22.304 30.72 36 44.384 5.536 5.568 11.392 10.688 17.312 15.712-1.728 13.728-2.88 27.616-2.88 41.824 0 185.568 150.464 336.064 336.064 336.064 185.6 0 336.064-150.496 336.064-336.064 0-145.856-93.088-269.664-222.912-316.16-6.176-26.336-16.16-51.456-29.76-74.816 66.592 14.208 127.136 44.736 176.96 87.552 0.928-1.216 1.44-2.688 2.56-3.84l181.056-180.96c12.512-12.576 32.736-12.576 45.248 0 12.512 12.448 12.512 32.736-0.032 45.248zM479.968 255.264c-46.080 46.080-107.36 71.456-172.576 71.456s-126.464-25.376-172.544-71.456c-46.112-46.080-71.488-107.36-71.488-172.576s25.376-126.464 71.488-172.576 107.392-71.488 172.576-71.488c0 0 0 0 0.032 0 65.184 0 126.464 25.408 172.544 71.488 46.080 46.048 71.456 107.36 71.456 172.576-0.032 65.184-25.408 126.464-71.488 172.576zM434.72-44.64c-34.016-34.016-79.232-52.736-127.296-52.736 0 0 0 0 0 0-48.096 0-93.344 18.752-127.328 52.736-34.016 34.016-52.736 79.232-52.736 127.328s18.72 93.312 52.736 127.328c34.016 34.016 79.2 52.704 127.296 52.704s93.312-18.72 127.328-52.704c34.016-34.016 52.736-79.232 52.736-127.328 0-48.128-18.72-93.312-52.736-127.328zM419.584 194.848c-12.512 12.512-32.736 12.512-45.248 0l-66.944-66.944-66.944 66.944c-12.512 12.512-32.736 12.512-45.248 0s-12.512-32.736 0-45.248l66.944-66.944-66.944-66.944c-12.512-12.512-12.512-32.736 0-45.248 6.24-6.24 14.432-9.376 22.624-9.376s16.384 3.136 22.624 9.376l66.944 66.944 66.944-66.944c6.24-6.24 14.432-9.376 22.624-9.376s16.384 3.136 22.624 9.376c12.512 12.512 12.512 32.736 0 45.248l-66.944 66.944 66.944 66.944c12.48 12.48 12.48 32.736-0 45.248z"  horiz-adv-x="1024" />

    
    <glyph glyph-name="1" unicode="&#58935;" d="M12.096 355.552l444.352 0L456.448 799.904 12.096 799.904 12.096 355.552zM567.552 799.904l0-444.352 444.352 0L1011.904 799.904 567.552 799.904zM12.096-199.904l444.352 0L456.448 244.448 12.096 244.448 12.096-199.904zM567.552-199.904l444.352 0L1011.904 244.448 567.552 244.448 567.552-199.904z"  horiz-adv-x="1024" />

    
    <glyph glyph-name="2" unicode="&#58936;" d="M884.032 620.256c0 0-298.048 198.976-596.416 86.848-298.304-112.128-299.456-404.352-275.392-509.76 24.128-105.408 111.232-296.256 369.856-317.184 207.936-0.704 171.776 188.672 316.992 211.456C1285.888 264.8 884.032 620.256 884.032 620.256zM234.24 103.2c-37.056 0-67.136 30.08-67.136 67.136 0 37.056 30.08 67.136 67.136 67.136s67.136-30.08 67.136-67.136C301.376 133.216 271.296 103.2 234.24 103.2zM278.976 326.944c-37.056 0-67.136 30.08-67.136 67.136 0 37.056 30.08 67.136 67.136 67.136 37.056 0 67.136-30.08 67.136-67.136C346.112 357.024 316.032 326.944 278.976 326.944zM457.984 461.216c-37.056 0-67.136 30.08-67.136 67.136 0 37.056 30.08 67.136 67.136 67.136s67.136-30.08 67.136-67.136C525.12 491.232 495.04 461.216 457.984 461.216zM681.728 461.216c-37.056 0-67.136 30.08-67.136 67.136 0 37.056 30.08 67.136 67.136 67.136 37.056 0 67.136-30.08 67.136-67.136C748.864 491.232 718.784 461.216 681.728 461.216zM816 326.944c-37.056 0-67.136 30.08-67.136 67.136 0 37.056 30.08 67.136 67.136 67.136 37.056 0 67.136-30.08 67.136-67.136C883.136 357.024 853.056 326.944 816 326.944z"  horiz-adv-x="1024" />

    
    <glyph glyph-name="3" unicode="&#58937;" d="M79.488 802.656l0-1009.344 877.696 0L957.184 802.656 79.488 802.656zM869.376-118.88 167.232-118.88l0 131.648 702.144 0L869.376-118.88zM869.376 100.512 167.232 100.512 167.232 451.616l702.144 0L869.376 100.512z"  horiz-adv-x="1024" />

    
    <glyph glyph-name="4" unicode="&#58938;" d="M81.728 800.032l0-1006.72 875.392 0L957.12 800.032 81.728 800.032zM869.632-119.136 169.28-119.136l0 131.328 700.352 0L869.632-119.136zM869.632 449.888 169.28 449.888 169.28 712.544l700.352 0L869.632 449.888z"  horiz-adv-x="1024" />

    
    <glyph glyph-name="gouicon" unicode="&#59051;" d="M959.94666 564.447904 899.86426 624.530304 370.356514 95.046095 124.134717 341.268916 64.052317 281.187539 361.641015-16.402183 370.051569-24.529281 379.068943-16.402183Z"  horiz-adv-x="1024" />

    
    <glyph glyph-name="lianxiwomen" unicode="&#58981;" d="M716.164425 207.417395c-47.167253 0-81.58718-40.793078-122.380258-40.793078S369.420189 346.370097 369.420189 390.988294c0 44.618197 40.793078 66.288752 40.793078 112.181989 0 33.144888-122.380258 234.562247-173.371606 234.562247-50.992371 0-173.372629-90.51041-173.372629-173.372629 0-242.211461 446.178899-703.68674 724.08328-703.68674 76.488045 0 173.372629 80.311117 173.372629 173.372629C960.924941 65.915637 762.056638 207.417395 716.164425 207.417395zM756.958526-98.532739c-200.680579 3.38612-652.696416 421.748487-652.696416 652.695393 0 79.007425 93.15975 146.162918 124.71135 142.776797 40.096207-4.303003 140.446729-151.959947 140.446729-183.570899 0-43.76169-50.992371-103.636359-20.396539-163.17436 19.440771-37.844933 185.423083-224.363977 224.362954-224.363977 38.941917 0 97.742115 40.793078 142.776797 40.793078 43.801599 0 203.967438-110.248963 203.967438-140.645251C920.131863-62.758977 829.960167-98.532739 756.958526-98.532739z"  horiz-adv-x="1024" />

    
    <glyph glyph-name="ticket" unicode="&#58996;" d="M378.304 355.968h-81.472v-81.408h81.472v81.408zM351.104 301.696h-27.136v27.136h27.136l-0-27.136zM541.184 518.912h-81.472v-81.472h81.472v81.472zM514.048 464.576h-27.2v27.2h27.136v-27.2zM936.256 697.728c-15.808 15.808-35.072 23.744-57.792 23.744h-81.536v-41.216h-41.216l0 41.216h-610.176c-22.72 0-41.984-7.936-57.792-23.744-15.808-15.808-23.744-35.072-23.744-57.792v-488.32c0-22.72 7.936-41.984 23.744-57.792s35.072-23.744 57.792-23.744h610.176v40.32h41.216v-40.32h81.536c22.72 0 41.984 7.936 57.792 23.744s23.744 35.072 23.744 57.792v488.32c0 22.72-7.936 41.984-23.744 57.792zM405.44 247.424h-135.744v135.744h135.744l-0-135.744zM405.44 410.304h-135.744v135.744h135.744l-0-135.744zM514.048 247.424h-27.2v27.136h27.136v-27.136zM568.32 247.424h-27.136v27.136h27.136v-27.136zM568.32 328.832v-27.136h-81.472v54.272h-27.136v-108.608l-27.136 0v135.808h81.408v-54.272h27.136v54.272h27.2v-54.336zM568.32 410.304h-135.744v135.744h135.744v-135.744zM796.928 191.936h-41.216v40.32h41.216v-40.32zM796.928 312.896h-41.216v41.216h41.216v-41.216zM796.928 434.752h-41.216v41.216h41.216v-41.216zM796.928 557.504h-41.216v40.32h41.216v-40.32zM378.304 518.912h-81.472v-81.472h81.472v81.472zM351.104 464.576h-27.136v27.2h27.136l-0-27.2z"  horiz-adv-x="1024" />

    
    <glyph glyph-name="lianxiwuye" unicode="&#58918;" d="M686.208 197.728c-81.216 0-149.696-48.448-181.312-117.696-130.816 44.16-228.736 158.208-250.56 297.792 94.336 12.608 167.424 92.48 167.424 190.272 0 106.496-86.4 192.832-192.832 192.832-99.136 0-179.904-75.072-190.656-171.392C33.408 556.64 30.08 523.296 30.08 489.056c0-354.048 264.512-645.76 606.656-689.664l-1.28 1.536c16.192-4.224 33.152-6.656 50.688-6.656 17.92 0 34.944 3.328 51.456 7.936 0.576 0.192 1.216 0.192 1.664 0.448 0.32 0.064 0.64 0.128 0.96 0.192l-0.128 0.32c10.944 5.056 18.624 16.064 18.624 28.864 0 17.6-14.336 32-32 32-5.632 0-10.624-1.792-15.168-4.352l-0.256 0.512c-8.256-1.664-16.384-3.84-25.152-3.84-11.328 0-22.144 1.6-32.64 4.224-20.928 2.752-42.688 7.744-62.912 13.696-10.624 1.664-21.888 4.032-33.344 6.784-6.72 1.856-13.44 3.776-20.032 5.824-5.312 1.6-10.688 3.136-16.064 5.056C276.992-24.288 100.608 204.192 94.72 475.296l-0.512 0.64L92.608 479.392C91.392 528.928 95.36 568.096 95.36 568.096c0 73.728 59.84 133.504 133.504 133.504s133.504-59.776 133.504-133.504c0-73.664-59.84-133.44-133.504-133.44-6.72 0-12.992 1.6-19.456 2.688C209.088 436.96 208.896 436.384 208.512 436c-17.28-1.344-21.504-17.984-22.016-32.832L186.496 403.168c0-0.128 0.064-0.256 0.064-0.448C186.176 390.816 188.224 380.128 188.224 380.128 188.8 380 189.44 380 190.016 379.936c21.76-169.728 139.136-308.608 297.344-360.768 0-0.32-0.128-0.64-0.192-0.96 1.728-0.576 4.736-1.024 6.72-1.536 2.368-0.704 4.48-1.856 6.784-2.56l0.192 1.024c3.968-0.896 6.848-1.792 11.648-2.688 2.944 0.256 6.272 0.64 9.344 0.896 1.984-0.448 3.904-1.216 6.016-1.216 7.36 0 14.016 3.008 18.88 7.808 0.832 0.448 1.28 0.448 2.112 0.96 0.256 1.344 0.768 2.496 1.088 3.84 2.624 4.096 4.544 8.832 4.544 14.08 0 0.576-0.32 1.088-0.32 1.536 18.496 55.36 70.336 95.424 131.904 95.424 77.12 0 139.712-62.592 139.712-139.712 0-42.688-19.84-79.936-49.92-105.536l0.896-0.576c-3.648-5.184-6.208-11.136-6.208-17.856 0-17.6 14.336-32 32-32 13.312 0 24.704 8.192 29.504 19.776 33.856 35.968 55.808 83.008 55.808 136.256C887.936 107.424 797.568 197.728 686.208 197.728z"  horiz-adv-x="1024" />

    
    <glyph glyph-name="iconfont1zhuanhuan" unicode="&#59062;" d="M164.032 684l184 0 0-448L164.032 236 164.032 684zM0 236l256-384 256 384L0 236zM1024 364l-256 384L512 364 1024 364zM676.032 365.024l184 0 0-448-184 0L676.032 365.024z"  horiz-adv-x="1024" />

    
    <glyph glyph-name="yaoqing" unicode="&#58998;" d="M509.457596 752.78127l-46.99636-47.509037 100.187817 0L509.457596 752.78127zM153.296897 702.517493l424.330288 0 7.229658-45.788859L202.187397 656.728634l1.029446-370.276185 620.225887 0-0.017396-44.930305L201.151811 241.522144l-47.854914 35.117822 0 60.938907-62.658062 5.160533 64.034409 71.269183L153.296897 702.517493zM584.856843 656.728634l242.203274-1.034563-3.617387-369.241622 0 0-0.017396-44.930305 0.534166-2.582825L663.868361 113.44821 935.508062-113.777955l0 443.091584-67.13912-50.609655-1.029446 60.939931 68.168566 1.030469-70.233598 73.333192 7.228635 288.509926L577.627185 702.517493 584.856843 656.728634zM384.996956 105.188082 86.637708-147.802886l837.248665 1.49198L624.619452 105.188082 384.996956 105.188082zM86.637708 327.249621l0-444.812785L358.489232 112.413648 86.637708 327.249621zM677.293115 368.218708l90.892103 0 0-16.523325-90.892103 0L677.293115 368.218708 677.293115 368.218708zM416.500461 499.391213l351.169011 0 0-16.528442L416.500461 482.862771 416.500461 499.391213 416.500461 499.391213zM530.113031 556.195963l237.556441 0 0-23.926946L530.113031 532.269018 530.113031 556.195963 530.113031 556.195963zM327.15969 573.066189c0 0-33.051767 36.666084-45.962821 3.099594 0 0-11.359722-25.306362 6.200212-43.895743l39.762609-41.143049c0 0 44.931329 40.111556 55.256488 57.154721 0 0 9.81146 39.155788-24.785499 42.037419C357.630678 590.318108 347.819219 590.880927 327.15969 573.066189L327.15969 573.066189zM327.15969 573.066189"  horiz-adv-x="1024" />

    
    <glyph glyph-name="lianxizixun" unicode="&#58943;" d="M640 396l-256 0c-17.664 0-32 14.336-32 32s14.336 32 32 32l256 0c17.696 0 32-14.336 32-32S657.696 396 640 396zM579.264 268 384 268c-17.664 0-32 14.336-32 32s14.336 32 32 32l195.264 0c17.696 0 32-14.336 32-32S596.928 268 579.264 268zM962.24 364c0 211.744-200.96 384-448 384s-448-172.256-448-384c0-116.512 63.04-226.048 172.928-300.672 14.624-9.984 34.528-6.144 44.448 8.512 9.92 14.624 6.112 34.528-8.512 44.448C183.04 178.784 130.24 269.056 130.24 364c0 176.448 172.256 320 384 320 211.744 0 384-143.552 384-320 0-176.448-172.256-320-384-320-1.984 0-3.68-0.768-5.568-1.12-15.136 2.72-30.464-5.216-35.776-20.192-6.144-17.376-46.368-46.656-94.144-73.792 17.44 58.208 9.088 70.688 3.488 78.976-6.72 9.984-17.92 15.936-29.92 15.936-17.664 0-32-14.304-32-32 0-5.824 1.536-11.264 4.256-15.968-3.232-18.208-17.216-60.832-33.056-99.84-4.928-12.096-1.984-25.984 7.392-35.072 6.08-5.888 14.112-8.992 22.272-8.992 4.384 0 8.8 0.896 12.992 2.752 36.48 16.256 147.648 69.12 187.616 125.632C765.344-16.16 962.24 154.432 962.24 364z"  horiz-adv-x="1024" />

    
    <glyph glyph-name="daochu" unicode="&#59021;" d="M138.690224 747.923636c2.215458-0.034792 4.431939-0.099261 6.647397-0.100284 170.365132-0.004093 340.730265-0.019443 511.096421 0.085958 4.081968 0.00307 6.853082-1.176802 9.725502-4.059456 46.700625-46.874587 93.50665-93.643774 140.353608-140.371004 2.308579-2.303462 3.445472-4.538363 3.441379-7.925507-0.098237-96.352465-0.078795-192.705953-0.078795-289.059442 0-1.673106 0-3.346211 0-5.334495-25.198915 0-50.006927 0-75.413574 0 0 74.070996 0 148.134829 0 222.614124-49.638537 0-98.68151 0-148.323117 0 0 49.579185 0 98.744955 0 148.217716-124.136252 0-247.670799 0-371.516432 0 0-247.479441 0-494.827899 0-742.592842 74.049506 0 147.991566 0 222.874043 0 0-25.554002 0-50.699706 0-75.845409-99.601462 0-199.203948 0-298.80541 0C138.690224 151.676883 138.690224 449.800771 138.690224 747.923636zM436.422186 1.933417c64.617693 0.034792 129.235386 0.069585 193.85308 0.103354 9.528004 0.005117 19.056008 0.001023 29.059849 0.001023 0-24.599258 0-48.89664 0-74.760704C734.93186-22.335313 809.475624 27.350296 884.679419 77.477974c-74.90192 49.940412-149.546991 99.707886-224.924749 149.963477 0-25.350364 0-49.936319 0-74.80266-1.812275-0.156566-3.116991-0.36839-4.420683-0.36839-72.291466-0.01535-144.581909-0.013303-216.874399-0.007163-0.678452 0-1.357927 0.063445-2.037403 0.096191C436.422186 102.217425 436.422186 52.075421 436.422186 1.933417z"  horiz-adv-x="1024" />

    
    <glyph glyph-name="countdown" unicode="&#58944;" d="M457.1 348.844c-2.278 0-4.584 0.281-6.862 0.844-112.669 28.322-191.363 129.178-191.363 245.25v98.437c0 15.525 12.6 28.125 28.125 28.125s28.125-12.6 28.125-28.125v-98.438c0-90.253 61.2-168.666 148.781-190.688 15.075-3.797 24.216-19.069 20.447-34.116-3.206-12.797-14.681-21.291-27.253-21.291zM566.9 348.844c-12.572 0-24.019 8.494-27.253 21.262-3.797 15.075 5.344 30.347 20.419 34.116 87.609 22.050 148.809 100.462 148.809 190.716v98.438c0 15.525 12.572 28.125 28.125 28.125s28.125-12.6 28.125-28.125v-98.438c0-116.072-78.694-216.928-191.334-245.25-2.306-0.563-4.613-0.844-6.891-0.844zM737 46.5c-15.553 0-28.125 12.6-28.125 28.125v84.375c0 90.281-61.2 168.694-148.781 190.688-15.075 3.769-24.216 19.069-20.447 34.116 3.825 15.075 19.294 24.103 34.116 20.419 112.669-28.266 191.362-129.122 191.362-245.222v-84.375c0-15.525-12.572-28.125-28.125-28.125zM287 46.5c-15.525 0-28.125 12.6-28.125 28.125v84.375c0 116.1 78.694 216.956 191.363 245.25 15.103 3.684 30.319-5.344 34.116-20.419s-5.344-30.347-20.447-34.116c-87.609-22.022-148.781-100.434-148.781-190.716v-84.375c0-15.525-12.6-28.125-28.125-28.125zM821.375 665.25h-618.75c-15.525 0-28.125 12.6-28.125 28.125v112.5c0 15.525 12.6 28.125 28.125 28.125h618.75c15.553 0 28.125-12.6 28.125-28.125v-112.5c0-15.525-12.572-28.125-28.125-28.125zM230.75 721.5h562.5v56.25h-562.5v-56.25zM821.375-66h-618.75c-15.525 0-28.125 12.6-28.125 28.125v112.5c0 15.525 12.6 28.125 28.125 28.125h618.75c15.553 0 28.125-12.6 28.125-28.125v-112.5c0-15.525-12.572-28.125-28.125-28.125zM230.75-9.75h562.5v56.25h-562.5v-56.25z"  horiz-adv-x="1024" />

    
    <glyph glyph-name="ticket2" unicode="&#58924;" d="M939.181 430.695l-76.483 76.482c-5.044 5.045-13.221 5.044-18.265 0.001-15.131-15.128-35.246-23.458-56.644-23.458-44.164 0-80.097 35.919-80.097 80.073 0 21.394 8.337 41.507 23.477 56.635 2.425 2.422 3.786 5.709 3.787 9.136 0 3.426-1.36 6.713-3.782 9.136l-75.864 75.865c-12.959 12.928-30.792 20.345-48.921 20.345-17.694 0-34.279-6.833-46.709-19.248l-475.135-475.219c-12.515-12.459-19.425-29.163-19.457-47.036-0.033-18.183 7.324-36.003 20.192-48.902l75.853-75.852c2.422-2.423 5.709-3.784 9.134-3.784h0.016c3.432 0.005 6.72 1.375 9.141 3.807 15.146 15.228 35.315 23.609 56.793 23.609 44.165 0 80.097-35.917 80.097-80.069 0-21.471-8.393-41.639-23.634-56.784-2.435-2.42-3.807-5.709-3.813-9.141-0.005-3.432 1.356-6.724 3.782-9.152l76.49-76.49c12.611-12.609 29.251-19.555 46.854-19.555 17.901 0 34.878 7.129 47.799 20.063l475.235 475.218c12.833 12.833 19.896 29.652 19.886 47.357-0.009 17.601-7.020 34.284-19.731 46.966zM920.76 354.64l-475.241-475.224c-8.046-8.054-18.532-12.49-29.529-12.49-10.702 0-20.856 4.259-28.588 11.992l-67.878 67.875c14.665 18.582 22.617 41.385 22.617 65.427 0 58.395-47.52 105.902-105.93 105.902-24.042 0-46.843-7.944-65.426-22.592l-67.233 67.234c-8.052 8.072-12.657 19.223-12.638 30.599 0.020 10.969 4.227 21.186 11.871 28.794l475.152 475.237c7.543 7.537 17.648 11.685 28.447 11.685 11.341 0 22.522-4.666 30.665-12.79l67.263-67.265c-14.561-18.547-22.456-41.279-22.456-65.228 0-58.396 47.52-105.906 105.932-105.906 23.943 0 46.675 7.89 65.225 22.439l67.908-67.907c7.833-7.815 12.151-18.010 12.157-28.704 0.007-10.801-4.367-21.129-12.318-29.078zM288.143 177.967l-19.703 19.777 53.128 53.077 19.703-19.724-53.128-53.13zM374.646 264.442l-19.726 19.781 247.381 247.315 19.703-19.677-247.358-247.418zM421.697 44.462l-19.703 19.677 53.079 53.13 19.727-19.727-53.103-53.080zM508.149 130.942l-19.675 19.777 247.381 247.29 19.703-19.677-247.409-247.39z"  horiz-adv-x="1024" />

    
    <glyph glyph-name="yanzhengma" unicode="&#58901;" d="M953.925015 480.591031c-12.288884 12.288884-32.239262 12.288884-44.530193 0L679.30033 250.496539 554.785455 375.010391c-12.289907 12.258185-32.174793 12.258185-44.431955 0-12.289907-12.255115-12.289907-32.17377 0-44.431955l146.586566-146.620335c0.061398-0.062422 0.077771-0.148379 0.141216-0.211824 6.15621-6.15621 14.222933-9.222035 22.289656-9.209756 8.057513-0.011256 16.116049 3.045359 22.271236 9.184173 0.076748 0.076748 0.097214 0.183172 0.172939 0.260943l252.109901 252.078179C966.214922 448.350746 966.214922 468.301124 953.925015 480.591031zM409.265174 405.646132 220.321918 405.646132c-17.373693 0-31.457456-14.115486-31.457456-31.490202 0-17.407462 14.083763-31.490202 31.457456-31.490202L409.265174 342.665729c17.374716 0 31.457456 14.083763 31.457456 31.490202C440.72263 391.530646 426.63989 405.646132 409.265174 405.646132zM409.265174 258.690152 220.321918 258.690152c-17.373693 0-31.457456-14.08274-31.457456-31.489178 0-17.374716 14.083763-31.490202 31.457456-31.490202L409.265174 195.710772c17.374716 0 31.457456 14.115486 31.457456 31.490202C440.72263 244.608435 426.63989 258.690152 409.265174 258.690152zM682.115446 122.141196c-17.350157 0-31.419594-14.031575-31.487132-31.365358l-0.00307 0 0-41.987277c0-34.783201-7.204076-41.987277-41.953508-41.987277L167.872359 6.801285c-34.783201 0-41.987277 7.204076-41.987277 41.987277L125.885082 552.568343c0 34.782178 7.204076 41.987277 41.987277 41.987277l440.798355 0c34.749432 0 41.953508-7.205099 41.953508-41.987277l0-104.96768 0.041956 0c0-0.055259-0.004093-0.109494-0.004093-0.164752 0-17.381879 14.090926-31.471782 31.471782-31.471782s31.471782 14.090926 31.471782 31.471782c0 0.055259-0.004093 0.109494-0.004093 0.164752l0.004093 0L713.605647 594.555619c0 34.749432-28.198226 62.947657-62.981427 62.947657L125.885082 657.503277c-34.783201 0-62.981427-28.198226-62.981427-62.947657l0-587.754335c0-34.749432 28.198226-62.947657 62.981427-62.947657l524.740162 0c34.783201 0 62.981427 28.198226 62.981427 62.947657l0 83.974553-0.00307 0C713.535039 108.109622 699.464579 122.141196 682.115446 122.141196z"  horiz-adv-x="1024" />

    
    <glyph glyph-name="yonghu" unicode="&#58880;" d="M511.998465-145.724551c245.766426 0 445.725574 199.960171 445.725574 445.724551 0 245.76438-199.959148 445.724551-445.725574 445.724551-245.76438 0-445.723527-199.961194-445.723527-445.724551C66.274938 54.23562 266.233062-145.724551 511.998465-145.724551L511.998465-145.724551zM511.998465 690.009621c215.066217 0 390.010645-174.943404 390.010645-390.009621 0-215.059054-174.944428-390.010645-390.010645-390.010645-215.065194 0-390.008598 174.951591-390.008598 390.010645C121.989867 515.065194 296.933271 690.009621 511.998465 690.009621L511.998465 690.009621zM511.998465 593.742091c96.075149 0 173.984566-77.250408 173.984566-172.573427 0-95.294366-77.875648-172.536588-173.984566-172.536588-96.102778 0-173.951821 77.249385-173.951821 172.536588C338.046644 516.491683 415.927409 593.742091 511.998465 593.742091L511.998465 593.742091zM511.998465 297.952364c68.633147 0 124.276445 55.18895 124.276445 123.250068 0 68.088748-55.643298 123.249045-124.276445 123.249045-68.633147 0-124.274398-55.19202-124.274398-123.249045C387.724067 353.112662 443.365318 297.952364 511.998465 297.952364L511.998465 297.952364zM511.998465 297.952364c137.291876 0 248.551866-110.355387 248.551866-246.503207l-49.714262 0c0 108.87978-89.021499 197.181895-198.837604 197.181895-109.814058 0-198.839651-88.302115-198.839651-197.181895l-49.711192 0C263.448646 187.596977 374.709659 297.952364 511.998465 297.952364L511.998465 297.952364zM511.998465 297.952364"  horiz-adv-x="1024" />

    
    <glyph glyph-name="jiantouxiangxia" unicode="&#58975;" d="M385.735783 746.946378l0-539.747971L250.742253 207.198407l260.782422-354.37196L772.303003 207.198407 637.310495 207.198407 637.310495 746.946378 385.735783 746.946378z"  horiz-adv-x="1024" />

    
    <glyph glyph-name="xinxicaiji" unicode="&#59068;" d="M300.36 496.696l194.344 0c6.984 0 12.648-6.328 12.648-14.048 0-7.76-5.664-14.048-12.648-14.048L300.36 468.6c-6.976 0-12.648 6.288-12.648 14.048C287.72 490.376 293.392 496.696 300.36 496.696zM300.36 559.92l194.344 0c6.984 0 12.648-6.32 12.648-14.048 0-7.752-5.664-14.008-12.648-14.008L300.36 531.864c-6.976 0-12.648 6.256-12.648 14.008C287.72 553.6 293.392 559.92 300.36 559.92zM0-49.72l0 212 79.04 0c6.984 0 12.584 6.264 12.584 14 0 7.72-5.608 14.048-12.584 14.048L0 190.328l0 39.488 79.04 0c6.984 0 12.584 6.288 12.584 14.024 0 7.712-5.608 14.048-12.584 14.048L0 257.888l0 39.488 79.04 0c6.984 0 12.584 6.28 12.584 14.008 0 7.72-5.608 14.048-12.584 14.048L0 325.432l0 34.848c0 35.04 28.336 63.48 63.344 63.48l310.96 0c35.064 0 63.472-28.44 63.472-63.48l0-33.328 366.456 0L804.232 431.632 659.04 431.632c-58.92 0-106.96 48-106.96 107.016L552.08 675.216c-77.616 0-262.608 0-262.608 0-28.168 0-50.96-22.92-50.96-51.008l0-63.472c0-15.448-12.648-28-28.096-28-15.448 0-27.968 12.552-27.968 28l0 63.472c0 58.952 48.024 106.992 107.024 106.992l306.832 0c7.6 0 14.832-3.088 20.064-8.504l235.888-241c5.112-5.304 7.976-12.272 7.976-19.592l0-135.144 100.232 0c35.184 0 63.528-28.432 63.528-63.472l0-313.2L0-49.712zM608.088 651.184l0-112.528c0-28.16 22.856-51.048 50.952-51.048l109.008 0C722.64 534.104 646.832 611.56 608.088 651.184zM960.472-131.192 63.344-131.192c-31.52 0-57.56 23.232-62.416 53.472l1022.136 0C1018.152-107.96 992.224-131.192 960.472-131.192z"  horiz-adv-x="1024" />

    
    <glyph glyph-name="tongji" unicode="&#58999;" d="M805.313969 433.153205c-16.101524 48.452962-43.007538 93.826224-77.11168 130.150134-117.535773 125.065954-304.846438 146.925494-447.983124 54.851974l192.551749-294.821604L805.313969 433.153205 805.313969 433.153205zM216.647459 635.835608c-16.961456-11.23628-32.726062-23.688871-47.307197-37.396696C131.819503 563.156165 103.550005 520.142546 84.388243 471.584981l325.886185-129.646581L216.647459 635.835608 216.647459 635.835608zM538.756999 117.28699c0 114.975439 93.199824 208.155802 208.160667 208.155802 22.596624 0 44.300476-3.720695 64.678549-10.376348-2.703859 23.347088-7.678571 46.609034-15.261053 69.457435L462.660939 276.025295 136.794215 405.600114c-49.688734-126.748112-22.454316-270.709456 70.42197-369.544449 106.997655-113.919681 271.712913-141.328031 405.848897-78.062835C567.652897-3.825954 538.756999 53.34066 538.756999 117.28699L538.756999 117.28699zM746.916449 309.98348c-106.42234 0-192.700139-86.272934-192.700139-192.695274 0-106.440585 86.277799-192.698923 192.700139-192.698923s192.695274 86.258338 192.695274 192.698923C939.616588 223.710547 853.33879 309.98348 746.916449 309.98348M689.30345 22.814905c0-4.275333-3.506624-7.834259-7.801418-7.834259l-39.145751 0c-4.294794 0-7.839124 3.560142-7.839124 7.834259l0 82.552238c0 4.29601 3.54433 7.84034 7.839124 7.84034l39.145751 0c4.294794 0 7.801418-3.54433 7.801418-7.84034L689.30345 22.814905 689.30345 22.814905zM859.653876 22.814905c0-4.275333-3.54433-7.834259-7.834259-7.834259l-39.111694 0c-4.333716 0-7.839124 3.560142-7.839124 7.834259L804.8688 163.698982c0 4.294794 3.506624 7.801418 7.839124 7.801418l39.111694 0c4.294794 0 7.834259-3.506624 7.834259-7.801418L859.653876 22.814905 859.653876 22.814905zM774.28831 22.814905c0-4.275333-3.506624-7.834259-7.801418-7.834259l-39.111694 0c-4.328851 0-7.834259 3.560142-7.834259 7.834259L719.54094 224.389248c0 4.289929 3.506624 7.801418 7.834259 7.801418l39.111694 0c4.294794 0 7.801418-3.506624 7.801418-7.801418L774.28831 22.814905 774.28831 22.814905zM774.28831 22.814905"  horiz-adv-x="1024" />

    
    <glyph glyph-name="hezuoxitou" unicode="&#58945;" d="M894.656 641.376c-65.376 69.856-135.68 84.512-183.136 84.512-66.176 0-122.016-28.096-149.696-52.128-12.224-10.592-28.928-26.08-49.76-46.144-14.176 13.824-24.736 23.744-31.456 29.824-30.912 27.488-94.112 59.584-170.592 59.584-68.128 0-129.856-26.368-178.464-76.288C99.296 607.584 76.64 571.52 64.256 533.568c-10.368-31.872-13.6-65.12-9.664-98.848 6.88-58.4 33.056-101.792 43.04-118.336l1.888-3.04c15.712-27.04 56.032-65.12 75.04-82.336l-8.32-8.384c-14.752-14.88-22.816-34.528-22.752-55.392 0.064-20.832 8.288-40.48 23.136-55.296 15.36-15.232 36.352-23.904 57.6-22.688 1.12-19.296 9.184-37.184 22.976-50.816 14.816-14.752 34.592-22.336 55.424-22.752 1.408-18.752 9.408-49.888 22.912-63.264C340.224-62.24 359.808-84 380.608-84c0.16 0 0.288 0 0.48 0 1.312 0 9.344-22.656 22.88-36.064 22.752-22.624 58.784-22.016 87.552-8.864l3.648-5.024C509.12-148 512-152.672 544-152.672l0 0.16c32 0.032 49.76 9.6 66.176 26.048 16.128 16 27.84 37.376 28.576 59.008 0.256 0 1.76 0.032 2.016 0.064 21.248 1.248 31.328 10.624 46.912 26.208 15.68 15.552 16.32 28.352 16.32 49.472C704 8.608 704-20 704-20s21.728 0 21.792 0c21.184 32 41.472 28.896 57.184 44.544 16.192 16.192 25.6 46.72 26.464 68.288 21.856 0.736 43.456 14.912 60.096 31.552 30.72 32.384 31.552 87.328 2.112 117.088l-4.224 5.6c28.288 30.368 46.912 51.648 55.456 62.208 20 24.512 44.512 74.752 47.744 134.976C973.344 494.176 962.4 569.12 894.656 641.376zM576.48-87.68c-6.368-6.4-14.72-10.112-22.816-10.112-4.224 0-10.208 0.992-15.04 5.856l-5.024 5.024 42.08 42.4 5.28-5.248C590.144-59.072 588.16-76.064 576.48-87.68zM619.456 250.08l129.92-130.112c9.056-9.12 6.752-26.688-4.992-38.4-6.24-6.24-14.048-9.952-23.648-10.496-5.984 0-11.072 1.952-14.752 5.664l-132.64 132.992-30.176-30.08-7.36-9.28 59.424-61.568c-12.672 8.352-28.128 11.904-43.2 12.672-1.344 18.72-9.312 25.344-22.88 38.848C514.368 174.944 494.784 172 473.984 172c-0.096 0-0.192 0-0.288 0-1.376 32-9.376 47.104-22.88 60.544-15.296 15.232-35.68 28.832-57.568 28.16-0.864 14.752-5.824 31.424-14.176 43.264 19.328-8.16 40.736-12.416 62.976-12.416 3.168 0 6.432 0.8 9.312 0.992 7.328 0.352 72.96 5.152 124.288 54.624l64.8 60.352 87.936-91.552-0.128-0.064 104.32-110.272c8.832-8.864 7.552-28.224-2.176-38.688-6.752-6.688-15.424-10.496-23.808-10.496-4.128 0-10.08 0.96-15.072 6.016l-134.176 126.816L619.456 250.08zM291.584 404.672l-18.112-18.912 18.112-18.88c1.12-1.216 12.928-13.376 31.712-27.488-23.328 2.144-46.976-5.856-63.712-22.752l-46.56-46.912c-23.104 20.864-56.128 53.536-66.816 71.808l-1.888 3.104c-56.448 93.12-47.36 182.304 26.336 257.952C218.816 652 273.248 662.368 310.464 662.368c4.864 0 9.632-0.16 14.112-0.48 54.912-3.648 98.848-26.688 119.744-45.28 6.048-5.408 15.68-14.528 28.672-27.2C390.592 507.744 292.608 405.728 291.584 404.672zM204.96 184.16l93.344 94.048c4.48 4.512 10.432 6.976 16.8 6.976 6.336 0 12.256-2.432 16.672-6.848 4.48-4.48 6.976-10.432 7.04-16.736 0-6.336-2.432-12.288-6.88-16.736l-93.44-94.112c-8.8-8.928-24.576-8.992-33.44-0.096-4.512 4.48-7.008 10.4-7.008 16.672C198.08 173.728 200.544 179.648 204.96 184.16zM285.472 110.592l93.44 94.08c4.48 4.512 10.432 7.008 16.8 7.008 6.272 0 12.192-2.432 16.704-6.912 4.48-4.448 6.944-10.368 6.976-16.704 0.032-6.304-2.432-12.288-6.848-16.768l-93.44-94.048c-8.768-8.992-24.48-9.056-33.44-0.192-4.512 4.512-7.008 10.432-7.008 16.832C278.592 100.192 281.024 106.112 285.472 110.592zM363.776 38.336l93.408 94.112c4.48 4.512 10.4 6.976 16.8 6.976 6.304 0 12.224-2.432 16.672-6.848 9.248-9.216 9.312-24.256 0.128-33.536l-93.312-94.016c-9.056-9.056-24.672-9.024-33.568-0.16-4.512 4.48-6.976 10.4-6.976 16.8C356.864 27.936 359.296 33.856 363.776 38.336zM442.272-34.176l93.408 94.112c4.48 4.512 10.4 6.976 16.8 6.976 6.272 0 12.224-2.432 16.672-6.88 4.512-4.448 7.008-10.368 7.008-16.672 0.032-6.336-2.4-12.32-6.88-16.768l-93.44-94.08c-8.864-8.992-24.416-9.12-33.376-0.064-4.512 4.448-7.008 10.368-7.072 16.64C435.392-44.64 437.856-38.624 442.272-34.176zM619.392 83.776l46.208-47.872c3.968-4 5.92-9.856 5.504-16.416-0.544-7.936-4.288-15.776-10.496-22.016-6.272-6.24-14.048-9.952-23.68-10.432-5.92 0-11.04 1.952-14.752 5.632l-5.6 5.632C634.336 23.712 635.168 57.568 619.392 83.776zM830.4 288.608l-187.68 195.584-104.736-97.12c-37.824-36.544-88.544-39.264-90.08-39.328-36.672-2.24-75.744 22.56-97.248 39.584 46.24 47.776 190.496 196.128 247.008 245.216 20.576 17.856 62.816 38.688 113.888 38.688 53.312 0 101.568-22.624 143.328-67.232 54.56-58.176 63.392-117.216 61.216-156.512-2.496-47.232-20.672-85.088-35.424-103.232C870.752 332.16 845.664 304.96 830.4 288.608z"  horiz-adv-x="1024" />

    
    </font>
</defs>
</svg>
